<?xml version="1.0" encoding="UTF-8"?>
<svg id="Layer_1" data-name="Layer 1" xmlns="http://www.w3.org/2000/svg" xmlns:xlink="http://www.w3.org/1999/xlink" viewBox="0 0 945 387.2">
  <defs>
    <style>
      .cls-1 {
        fill: none;
      }

      .cls-2 {
        fill: #1ba8e1;
      }

      .cls-3 {
        fill: url(#linear-gradient-8);
      }

      .cls-4 {
        fill: url(#linear-gradient-7);
      }

      .cls-5 {
        fill: url(#linear-gradient-5);
      }

      .cls-6 {
        fill: url(#linear-gradient-6);
      }

      .cls-7 {
        fill: url(#linear-gradient-9);
      }

      .cls-8 {
        fill: url(#linear-gradient-4);
      }

      .cls-9 {
        fill: url(#linear-gradient-3);
      }

      .cls-10 {
        fill: url(#linear-gradient-2);
      }

      .cls-11 {
        fill: url(#linear-gradient);
      }

      .cls-12 {
        fill: #1ca8e0;
      }

      .cls-13 {
        clip-path: url(#clippath-1);
      }

      .cls-14 {
        clip-path: url(#clippath-2);
      }

      .cls-15 {
        fill: #333f48;
      }

      .cls-16 {
        fill: url(#linear-gradient-10);
      }

      .cls-17 {
        fill: url(#linear-gradient-11);
      }

      .cls-18 {
        fill: #3cae49;
      }

      .cls-19 {
        clip-path: url(#clippath);
      }
    </style>
    <clipPath id="clippath">
      <path class="cls-1" d="M-151.3,52.89c-.03-.05-.08-.1-.1-.16.02.07.07.11.1.16M-151.3,52.89c.57.68,1.68.9,2.44.08,1.71-1.88,3.46-3.6,5.2-5.17,18.33-18.84,37.04-29.27,59.6-22.13,24.55,7.76,49.3,35.83,50.6,72.85,11.83-24.46,10.31-47.04,1.16-64.31C-47.17,15.06-64.54,7.79-81.41,7.79c-30.97,0-60.34,24.49-69.89,45.1"/>
    </clipPath>
    <linearGradient id="linear-gradient" x1="-3638.71" y1="-1069.72" x2="-3627.73" y2="-1069.72" gradientTransform="translate(-11862.23 -39932.83) rotate(-90) scale(11.01 -11.01)" gradientUnits="userSpaceOnUse">
      <stop offset="0" stop-color="#f1f1f2"/>
      <stop offset=".28" stop-color="#ededee"/>
      <stop offset=".5" stop-color="#e3e4e5"/>
      <stop offset=".71" stop-color="#d2d4d5"/>
      <stop offset=".9" stop-color="#bbbdbf"/>
      <stop offset=".9" stop-color="#bbbdbf"/>
      <stop offset="1" stop-color="#bbbdbf"/>
    </linearGradient>
    <clipPath id="clippath-1">
      <path class="cls-1" d="M-73.95,146.7s.02-.02.03-.03c-.01.01-.02.02-.03.03M-143.66,47.8c9.16-8.24,18.54-12.31,27.17-12.92,37.99-4.18,75.14,42.34,48.04,100.59-1.81,3.9-3.63,7.63-5.47,11.2,19.91-16.2,32.9-32.56,40.45-48.15-1.3-37.02-26.05-65.09-50.6-72.85-4.85-1.54-9.53-2.25-14.06-2.25-16.52-.01-31.15,9.59-45.54,24.38"/>
    </clipPath>
    <linearGradient id="linear-gradient-2" x1="-3858.12" y1="-1120.55" x2="-3847.14" y2="-1120.55" gradientTransform="translate(-7100.68 -24051.59) rotate(-90) scale(6.26 -6.26)" gradientUnits="userSpaceOnUse">
      <stop offset="0" stop-color="#f1f1f2"/>
      <stop offset="0" stop-color="#f1f1f2"/>
      <stop offset=".11" stop-color="#e2e2e4"/>
      <stop offset=".4" stop-color="#c1c2c5"/>
      <stop offset=".64" stop-color="#adafb1"/>
      <stop offset=".8" stop-color="#a6a8ab"/>
      <stop offset="1" stop-color="#a6a8ab"/>
    </linearGradient>
    <clipPath id="clippath-2">
      <path class="cls-1" d="M-151.5,51.26c-.27.63-.13,1.2.2,1.62,14.74-31.84,76.83-72.96,119.03-18.66C-43,13.95-64.26,1.01-86.77,1.01c-23.84,0-49.11,14.54-64.73,50.26"/>
    </clipPath>
    <linearGradient id="linear-gradient-3" x1="-3217.88" y1="-1375.24" x2="-3206.9" y2="-1375.24" gradientTransform="translate(26328.3 -11296.22) scale(8.23 -8.23)" gradientUnits="userSpaceOnUse">
      <stop offset="0" stop-color="#f1f1f2"/>
      <stop offset=".5" stop-color="#f1f1f2"/>
      <stop offset=".65" stop-color="#ededee"/>
      <stop offset=".78" stop-color="#e3e4e5"/>
      <stop offset=".89" stop-color="#d2d4d5"/>
      <stop offset="1" stop-color="#bbbdbf"/>
      <stop offset="1" stop-color="#bbbdbf"/>
    </linearGradient>
    <linearGradient id="linear-gradient-4" x1="777.83" y1="-2659.66" x2="770.69" y2="-2720.38" gradientTransform="translate(-1.55 -2607.52) scale(1 -1)" gradientUnits="userSpaceOnUse">
      <stop offset="0" stop-color="#1ba8e1"/>
      <stop offset="1" stop-color="#2b3a8b"/>
    </linearGradient>
    <linearGradient id="linear-gradient-5" x1="710.6" y1="-2668.31" x2="818.4" y2="-2707.73" gradientTransform="translate(-1.55 -2607.52) scale(1 -1)" gradientUnits="userSpaceOnUse">
      <stop offset=".18" stop-color="#1ba8e1"/>
      <stop offset=".7" stop-color="#1193d1"/>
    </linearGradient>
    <linearGradient id="linear-gradient-6" x1="753.28" y1="-2682.75" x2="791.13" y2="-2763.51" gradientTransform="translate(-1.55 -2607.52) scale(1 -1)" gradientUnits="userSpaceOnUse">
      <stop offset=".09" stop-color="#1ba8e1"/>
      <stop offset=".19" stop-color="#1899d6"/>
      <stop offset=".52" stop-color="#1071b6"/>
      <stop offset=".78" stop-color="#0b58a2"/>
      <stop offset=".94" stop-color="#094f9b"/>
    </linearGradient>
    <linearGradient id="linear-gradient-7" x1="756.32" y1="-2710.94" x2="792.03" y2="-2724.09" gradientTransform="translate(-1.55 -2607.52) scale(1 -1)" gradientUnits="userSpaceOnUse">
      <stop offset="0" stop-color="#1ba8e1"/>
      <stop offset="1" stop-color="#5dcbf5"/>
    </linearGradient>
    <linearGradient id="linear-gradient-8" x1="854.53" y1="-2730.3" x2="849.72" y2="-2669.19" gradientTransform="translate(-1.55 -2607.52) scale(1 -1)" gradientUnits="userSpaceOnUse">
      <stop offset="0" stop-color="#3cae49"/>
      <stop offset="1" stop-color="#005234"/>
    </linearGradient>
    <linearGradient id="linear-gradient-9" x1="939.82" y1="-2703.78" x2="849.89" y2="-2623.32" gradientTransform="translate(-1.55 -2607.52) scale(1 -1)" gradientUnits="userSpaceOnUse">
      <stop offset="0" stop-color="#3cae49"/>
      <stop offset=".27" stop-color="#39ad49"/>
      <stop offset=".48" stop-color="#2fa849"/>
      <stop offset=".68" stop-color="#1ea149"/>
      <stop offset=".87" stop-color="#069649"/>
      <stop offset=".9" stop-color="#019449"/>
    </linearGradient>
    <linearGradient id="linear-gradient-10" x1="893.48" y1="-2690.79" x2="842.29" y2="-2645.06" gradientTransform="translate(-1.55 -2607.52) scale(1 -1)" gradientUnits="userSpaceOnUse">
      <stop offset="0" stop-color="#3cae49"/>
      <stop offset=".33" stop-color="#1d8e46"/>
      <stop offset=".61" stop-color="#0a7944"/>
      <stop offset=".8" stop-color="#037243"/>
    </linearGradient>
    <linearGradient id="linear-gradient-11" x1="854.15" y1="-2668.88" x2="919.33" y2="-2606.48" gradientTransform="translate(-1.55 -2607.52) scale(1 -1)" gradientUnits="userSpaceOnUse">
      <stop offset=".5" stop-color="#3cae49"/>
      <stop offset=".65" stop-color="#39ab49"/>
      <stop offset=".77" stop-color="#2fa148"/>
      <stop offset=".88" stop-color="#1f9046"/>
      <stop offset=".98" stop-color="#097844"/>
      <stop offset="1" stop-color="#037243"/>
    </linearGradient>
  </defs>
  <g>
    <g class="cls-19">
      <rect class="cls-11" x="-163.58" y="-25.45" width="154.13" height="157.21" transform="translate(-68.47 -46.77) rotate(-48.2)"/>
    </g>
    <g class="cls-13">
      <rect class="cls-10" x="-171.24" y="2.89" width="165.37" height="164.32" transform="translate(-93.02 -37.65) rotate(-48.24)"/>
    </g>
    <g class="cls-14">
      <rect class="cls-9" x="-160.41" y="-51.26" width="136.77" height="135.35" transform="translate(-36.91 -59.09) rotate(-43.76)"/>
    </g>
  </g>
  <g>
    <polygon class="cls-12" points="466.56 348.72 464.63 347.08 462.74 345.4 461.2 347.28 459.62 349.12 461.5 350.7 463.39 352.29 464.97 350.51 466.56 348.72"/>
    <polygon class="cls-12" points="477.18 382.3 478.91 383.79 480.65 385.28 482.14 383.64 483.62 382 481.84 380.42 480.1 378.88 478.61 380.56 477.18 382.3"/>
    <polygon class="cls-12" points="484.22 382.15 485.96 383.64 487.74 385.13 489.23 383.49 490.72 381.85 488.93 380.27 487.15 378.73 485.71 380.42 484.22 382.15"/>
    <path class="cls-12" d="M507.09,337.26v25.69c0,1.39,0,3.12-.3,4.51-1.01.28-2.04.48-3.08.6-1.14.08-2.28.08-3.42,0h-.74c-1.46.02-2.92-.09-4.36-.35-1.15-.16-2.27-.49-3.32-.99.17-.7.3-1.42.4-2.13.05-.91.05-1.82,0-2.73v-6.3h-4.61v6.8c.01.86-.12,1.72-.4,2.53-.24.69-.65,1.3-1.19,1.79-.68.57-1.5.95-2.38,1.09-1.36.24-2.74.35-4.12.35h-1.14c-1.46.02-2.92-.09-4.36-.35-1.15-.17-2.27-.5-3.32-.99.17-.7.3-1.42.4-2.13.05-.91.05-1.82,0-2.73v-6.35h-4.61v6.8c.01.86-.12,1.72-.4,2.53-.24.69-.65,1.3-1.19,1.79-.68.57-1.5.95-2.38,1.09-1.36.24-2.74.35-4.12.35h-1.44c-1.03.02-2.05-.13-3.03-.45-.8-.26-1.51-.72-2.08-1.34-.55-.71-.96-1.52-1.19-2.38-.28-1.2-.41-2.44-.4-3.67v-23.41h-4.86v24.26c-.03,1.8.17,3.6.6,5.36.29,1.4.89,2.72,1.74,3.87.79,1.09,1.9,1.9,3.17,2.33,1.59.58,3.27.85,4.96.79h2.93c1.86.04,3.71-.17,5.51-.64,1.4-.36,2.7-1.02,3.82-1.93,1.23.88,2.61,1.53,4.07,1.93,1.76.46,3.58.68,5.41.64h2.23c1.86.04,3.71-.17,5.51-.64,1.4-.36,2.7-1.02,3.82-1.93,1.23.89,2.6,1.54,4.07,1.93,1.76.46,3.58.68,5.41.64h4.32c1-.1,2-.27,2.98-.5.89-.18,1.77-.41,2.63-.69.7-.22,1.38-.5,2.03-.84,0-.89.45-1.79.64-2.73s0-1.88.35-2.93,0-2.28,0-3.82v-25.35h-2.43l-2.08.64Z"/>
    <path class="cls-12" d="M542.9,349.51c-1.97,1.81-3.64,3.92-4.96,6.25-1.13,2-1.72,4.25-1.74,6.55-.01,1.01.16,2.02.5,2.98.39.99.92,1.91,1.59,2.73l-2.83.35h-4.41c-1.01.02-2.02-.13-2.98-.45-.8-.26-1.51-.72-2.08-1.34-.59-.68-1-1.5-1.19-2.38-.28-1.2-.41-2.44-.4-3.67v-23.66h-4.86v24.26c-.02,1.8.17,3.6.55,5.36.34,1.39.92,2.7,1.74,3.87.81,1.07,1.91,1.88,3.17,2.33,1.59.57,3.27.84,4.96.79h2.78c1.88.01,3.75-.14,5.61-.45,1.7-.27,3.37-.73,4.96-1.39,1.05.61,2.15,1.14,3.27,1.59,1.18.49,2.39.9,3.62,1.24,1.16.33,2.33.58,3.52.74,1.06.09,2.12.09,3.17,0,1.71.14,3.37-.57,4.46-1.88,1.11-1.71,1.63-3.73,1.49-5.75.01-2.1-.46-4.17-1.39-6.05-1.01-2.08-2.41-3.95-4.12-5.51-1.87-1.76-3.97-3.26-6.25-4.46-2.63-1.01-5.38-1.69-8.18-2.03ZM543.44,367.07c-1.08-.66-2.01-1.54-2.73-2.58-.58-.83-.89-1.82-.89-2.83.01-1.2.32-2.37.89-3.42.69-1.29,1.58-2.46,2.63-3.47,1.55.48,2.95,1.35,4.07,2.53.89,1.09,1.37,2.46,1.34,3.87,0,.51-.1,1.02-.3,1.49-.29.57-.64,1.1-1.04,1.59-.47.57-1.02,1.07-1.64,1.49-.68.43-1.39.79-2.13,1.09l-.2.25ZM557.78,370.89c-.19.19-.43.33-.69.4-.34.06-.7.06-1.04,0-1.34-.02-2.67-.21-3.97-.55-1.57-.4-3.1-.95-4.56-1.64,1.48-1.1,2.73-2.48,3.67-4.07.79-1.37,1.22-2.93,1.24-4.51v-1.88c1.77,1.38,3.28,3.06,4.46,4.96.98,1.64,1.51,3.5,1.54,5.41.06.29.06.6,0,.89-.13.31-.36.57-.64.74v.25Z"/>
    <path class="cls-12" d="M577.62,335.23l-2.88.5h-1.24c-.46.08-.93.08-1.39,0-.38-.14-.73-.34-1.04-.6-.26-.26-.48-.56-.64-.89-.07-.36-.07-.73,0-1.09-.05-.3-.05-.6,0-.89.14-.26.32-.5.55-.69.27-.21.57-.36.89-.45.34-.06.7-.06,1.04,0h1.39l1.49.4.45-1.14.5-1.19c-.63-.32-1.3-.57-1.98-.74-.68-.08-1.36-.08-2.03,0-.68-.01-1.35.1-1.98.35-.6.19-1.14.51-1.59.94-.49.39-.86.91-1.09,1.49-.25.65-.37,1.34-.35,2.03-.03.84.16,1.68.55,2.43.4.7.96,1.3,1.64,1.74l-1.34.5-2.08.84.4,1.19.4,1.24c1.93-.69,3.77-1.34,5.61-1.84s3.62-.94,5.36-1.24v-1.29l-.6-1.59Z"/>
    <path class="cls-12" d="M583.52,353.13c1.88.6,3.69,1.4,5.41,2.38,1.54.89,2.97,1.96,4.27,3.17,1.17,1.13,2.17,2.41,2.98,3.82.74,1.27,1.23,2.66,1.44,4.12-2.21.63-4.47,1.09-6.75,1.39-2.75.31-5.52.46-8.28.45h-1.69c-1.03.02-2.05-.13-3.03-.45-.8-.26-1.51-.72-2.08-1.34-.59-.68-1-1.5-1.19-2.38-.28-1.2-.41-2.44-.4-3.67v-18.4h-4.81v18.85c-.03,1.82.17,3.64.6,5.41.35,1.4.97,2.72,1.84,3.87.88,1.08,2.05,1.89,3.37,2.33,1.6.51,3.28.76,4.96.74h2.43c3.74.05,7.47-.23,11.16-.84,2.75-.41,5.41-1.26,7.89-2.53.03-.51.03-1.03,0-1.54v-1.69c.01-1.86-.29-3.7-.89-5.46-.59-1.8-1.5-3.48-2.68-4.96-1.29-1.57-2.79-2.96-4.46-4.12-1.92-1.32-3.98-2.42-6.15-3.27,2.58-1.8,5.32-3.36,8.18-4.66,2.92-1.36,5.96-2.45,9.08-3.27v-4.96c-3.98,1.08-7.85,2.52-11.56,4.32-3.51,1.71-6.83,3.77-9.92,6.15v6.2l.3.35Z"/>
    <path class="cls-12" d="M655.6,353.13c1.87.59,3.66,1.39,5.36,2.38,1.56.88,3.01,1.95,4.32,3.17,1.17,1.13,2.17,2.41,2.98,3.82.7,1.29,1.18,2.68,1.44,4.12-2.23.63-4.5,1.09-6.8,1.39-2.73.31-5.48.46-8.23.45h-2.23c-.74.09-1.49.09-2.23,0-.54-.12-1.03-.37-1.44-.74-.43-.42-.77-.93-.99-1.49-.33-.8-.58-1.63-.74-2.48-.29-1.61-.74-3.19-1.34-4.71-.5-1.23-1.17-2.38-1.98-3.42-.7-.88-1.6-1.58-2.63-2.03-1.11-.47-2.31-.7-3.52-.69-1.47-.02-2.93.28-4.27.89-1.33.64-2.52,1.55-3.47,2.68-1.08,1.29-1.96,2.72-2.63,4.27-.77,1.84-1.33,3.75-1.69,5.7-.74.04-1.46.22-2.13.55-.61.32-1.14.78-1.54,1.34-.41.57-.71,1.21-.89,1.88-.21.76-.31,1.54-.3,2.33v4.96c0,2.43,0,4.96.4,8.78h4.56c0-3.57-.3-6.4-.4-8.43s0-3.37,0-3.87c-.03-.53.12-1.06.45-1.49.37-.32.85-.48,1.34-.45h.25l.94.3,1.54.35,2.03.4,2.33.3h2.48c1.48,0,2.95-.13,4.41-.35,1.3-.22,2.58-.55,3.82-.99.71.9,1.68,1.56,2.78,1.88,1.46.44,2.99.64,4.51.6h2.63c3.74.06,7.47-.22,11.16-.84,2.77-.41,5.45-1.26,7.94-2.53.03-.51.03-1.03,0-1.54v-1.69c.01-1.86-.29-3.7-.89-5.46-.59-1.81-1.52-3.49-2.73-4.96-1.27-1.59-2.77-2.98-4.46-4.12-1.9-1.33-3.95-2.43-6.1-3.27,2.58-1.8,5.32-3.36,8.18-4.66,2.92-1.36,5.96-2.45,9.08-3.27v-4.96c-3.98,1.07-7.85,2.52-11.56,4.32-3.51,1.71-6.83,3.77-9.92,6.15v6.2l.2-.74ZM637.44,368.02c-1.21,0-2.42-.11-3.62-.3-1.4-.17-2.79-.42-4.17-.74.52-2.48,1.55-4.83,3.03-6.89,1.03-1.43,2.66-2.29,4.41-2.33,1.68-.03,3.25.84,4.12,2.28.51.89.91,1.84,1.19,2.83.39,1.32.69,2.66.89,4.02h0l-3.03.6c-.94.25-1.88.35-2.83.35v.2Z"/>
    <path class="cls-12" d="M718.14,364.84c-2.78.84-4.96,1.44-6.7,1.88-1.17.31-2.36.51-3.57.6-.71,0-1.4-.17-2.03-.5-1.56-.77-2.79-2.07-3.47-3.67-.33-.86-.49-1.76-.5-2.68-.02-.77.14-1.53.45-2.23.29-.68.73-1.29,1.29-1.79.57-.49,1.23-.88,1.93-1.14.75-.25,1.54-.36,2.33-.35,1.03,0,2.07.11,3.08.35,1.18.27,2.35.64,3.47,1.09l.69-2.08.69-2.08c-1.45-.67-2.96-1.2-4.51-1.59-1.39-.37-2.83-.55-4.27-.55-1.33-.02-2.66.19-3.92.64-1.17.46-2.23,1.16-3.12,2.03-.93.9-1.64,2.01-2.08,3.22-.47,1.34-.71,2.75-.69,4.17-.02,1.55.34,3.08,1.04,4.46.7,1.41,1.72,2.63,2.98,3.57h-7.94c-1.03.02-2.05-.13-3.03-.45-.8-.26-1.51-.72-2.08-1.34-.6-.58-1.09-1.27-1.44-2.03-.28-1.2-.41-2.44-.4-3.67v-23.86h-4.86v24.26c-.03,1.8.17,3.6.6,5.36.29,1.4.89,2.72,1.74,3.87.79,1.09,1.9,1.9,3.17,2.33,1.59.58,3.27.85,4.96.79h8.88c1.96-.14,3.92-.39,5.85-.74,1.88-.35,3.82-.79,5.9-1.34s4.32-1.29,6.65-2.08l-.55-2.33-.55-2.13Z"/>
    <path class="cls-12" d="M748.3,355.02c.97,3.57,1.45,7.26,1.44,10.96v1.19c-1.15.47-2.35.78-3.57.94-1.47.25-2.97.37-4.46.35h-1.59c-1.56.08-3.11-.3-4.46-1.09-1.17-.78-2.05-1.93-2.48-3.27-.38-.94-.71-1.9-.99-2.88-.4-1.44-.89-3.27-1.49-5.56l-2.23.69-2.18.64c.69,2.73,1.19,4.96,1.54,6.94.31,1.5.49,3.03.55,4.56.08.97.08,1.95,0,2.93-.15.91-.38,1.81-.69,2.68-.32.85-.75,1.65-1.29,2.38-.6.73-1.28,1.4-2.03,1.98-.81.56-1.69.99-2.63,1.29-1.05.31-2.13.46-3.22.45h-2.78l-.25,2.28v2.28l2.18.35h2.08c1.7,0,3.38-.31,4.96-.94,1.52-.6,2.9-1.53,4.02-2.73,1.16-1.28,2.09-2.76,2.73-4.36.71-1.83,1.16-3.75,1.34-5.7.83.88,1.84,1.56,2.98,1.98,1.32.46,2.72.68,4.12.64h2.08c2.14.03,4.27-.2,6.35-.69,1.74-.44,3.41-1.12,4.96-2.03.32-1.07.56-2.16.69-3.27v-3.92c0-1.66-.1-3.31-.3-4.96-.22-1.67-.53-3.33-.94-4.96l-2.23.55-2.18.3Z"/>
    <polygon class="cls-12" points="749.34 348.03 747.46 346.34 745.52 344.7 743.99 346.54 742.4 348.37 744.28 349.96 746.17 351.55 747.76 349.81 749.34 348.03"/>
    <path class="cls-12" d="M17.76,371.19c-1.7.02-3.38-.28-4.96-.89-1.43-.59-2.68-1.55-3.62-2.78-1-1.3-1.74-2.78-2.18-4.36-.48-1.91-.71-3.88-.69-5.85-.01-2.02.22-4.04.69-6,.39-1.66,1.1-3.23,2.08-4.61.9-1.3,2.13-2.33,3.57-2.98,1.57-.67,3.26-1.01,4.96-.99,1.15.02,2.3.17,3.42.45,1.44.33,2.87.75,4.27,1.24l.64-2.38.64-2.43c-1.47-.55-2.98-1-4.51-1.34-1.49-.29-3-.44-4.51-.45-2.51-.05-5.01.41-7.34,1.34-2.1.87-3.94,2.25-5.36,4.02-1.52,1.87-2.64,4.03-3.27,6.35-.77,2.59-1.14,5.28-1.09,7.99-.05,2.62.32,5.23,1.09,7.74.69,2.19,1.82,4.22,3.32,5.95,1.46,1.68,3.3,2.98,5.36,3.82,2.33.87,4.8,1.29,7.29,1.24,1.67.02,3.33-.15,4.96-.5,1.57-.4,3.08-.99,4.51-1.74l-.55-2.43-.69-2.23c-1.29.63-2.63,1.12-4.02,1.49-1.32.29-2.67.4-4.02.35Z"/>
    <path class="cls-12" d="M41.92,348.03c-1.56,0-3.12.14-4.66.4-1.46.2-2.89.57-4.27,1.09l.55,2.13.5,2.13c1.11-.43,2.25-.77,3.42-.99,1.23-.2,2.47-.3,3.72-.3,1.67-.13,3.33.37,4.66,1.39,1.08,1.17,1.64,2.73,1.54,4.32v2.23c-.9-.2-1.81-.35-2.73-.45-.97-.05-1.95-.05-2.93,0-1.42-.02-2.84.14-4.22.5-1.2.33-2.33.89-3.32,1.64-.9.57-1.65,1.36-2.18,2.28-.47,1.11-.71,2.31-.69,3.52-.03,1.18.21,2.35.69,3.42.5.97,1.19,1.83,2.03,2.53.98.78,2.11,1.36,3.32,1.69,1.44.37,2.93.56,4.41.55,2.03.02,4.06-.18,6.05-.6,1.73-.37,3.4-.99,4.96-1.84v-15.18c.02-1.52-.22-3.03-.69-4.46-.44-1.25-1.15-2.39-2.08-3.32-.97-.93-2.14-1.61-3.42-1.98-1.5-.5-3.08-.73-4.66-.69ZM47.62,370.99c-.7.38-1.45.66-2.23.84-.97.08-1.95.08-2.93,0-1.46.1-2.92-.27-4.17-1.04-.96-.76-1.48-1.95-1.39-3.17-.14-1.2.31-2.4,1.19-3.22,1.26-.84,2.76-1.24,4.27-1.14.83-.05,1.65-.05,2.48,0l2.53.5v6.94l.25.3Z"/>
    <path class="cls-12" d="M60.77,350.56v24.8h5.36v-21.48c.89-.46,1.84-.79,2.83-.99,1.09-.25,2.21-.36,3.32-.35h1.44l1.24.3.35-2.23.4-2.28h-3.77c-2.05-.02-4.1.19-6.1.64-1.75.29-3.46.82-5.06,1.59Z"/>
    <path class="cls-12" d="M83.43,337.56c-.46-.08-.93-.08-1.39,0-.38.16-.73.37-1.04.64-.3.29-.54.65-.69,1.04-.08.43-.08.86,0,1.29-.08.44-.08.9,0,1.34.27.8.89,1.42,1.69,1.69.48.08.96.08,1.44,0,.44.08.9.08,1.34,0,.4-.11.76-.33,1.04-.64.3-.23.55-.52.74-.84.08-.44.08-.9,0-1.34.06-.38.06-.76,0-1.14-.16-.39-.39-.75-.69-1.04-.29-.29-.65-.51-1.04-.64-.44-.2-.91-.32-1.39-.35Z"/>
    <polygon class="cls-12" points="80.76 375.46 83.43 375.46 86.11 375.46 86.11 362.06 86.11 348.62 83.43 348.62 80.76 348.62 80.76 362.06 80.76 375.46"/>
    <path class="cls-12" d="M106.05,348.03c-2.02,0-4.03.19-6,.6-1.91.43-3.78,1.06-5.56,1.88v24.8h5.36v-21.43c.93-.45,1.91-.78,2.93-.99,1.07-.24,2.17-.36,3.27-.35,1.64-.13,3.27.4,4.51,1.49,1.08,1.27,1.61,2.91,1.49,4.56v16.86h5.36v-17.21c.02-1.47-.22-2.93-.69-4.32-.47-1.24-1.24-2.35-2.23-3.22-1.01-.93-2.21-1.63-3.52-2.03-1.6-.46-3.25-.68-4.91-.64Z"/>
    <path class="cls-12" d="M127.53,351.75c-1.23,1.22-2.18,2.69-2.78,4.32-.62,1.82-.92,3.73-.89,5.65-.04,1.8.23,3.6.79,5.31.52,1.51,1.37,2.88,2.48,4.02,1.12,1.09,2.45,1.94,3.92,2.48,1.65.55,3.37.82,5.11.79,1.02.01,2.04-.1,3.03-.35.97-.21,1.91-.56,2.78-1.04v2.23c.02.83-.13,1.66-.45,2.43-.3.72-.78,1.35-1.39,1.84-.68.54-1.45.95-2.28,1.19-1.01.25-2.04.37-3.08.35-1.3,0-2.59-.1-3.87-.3-1.22-.23-2.41-.56-3.57-.99l-.55,2.13-.55,2.43c1.35.52,2.74.9,4.17,1.14,1.54.29,3.1.42,4.66.4,1.68,0,3.35-.23,4.96-.69,1.44-.44,2.77-1.16,3.92-2.13,1.16-.99,2.06-2.25,2.63-3.67.56-1.47.83-3.04.79-4.61v-24.8c-1.57-.76-3.24-1.29-4.96-1.59-1.63-.35-3.29-.53-4.96-.55-1.89-.04-3.78.28-5.56.94-1.67.68-3.16,1.73-4.36,3.08ZM142.01,368.46c-.72.46-1.5.8-2.33.99-.89.24-1.81.36-2.73.35-1.1.01-2.19-.17-3.22-.55-.93-.38-1.77-.98-2.43-1.74-.67-.79-1.17-1.7-1.49-2.68-.35-1.14-.52-2.33-.5-3.52-.04-1.25.15-2.49.55-3.67.34-1.03.9-1.98,1.64-2.78.72-.78,1.6-1.39,2.58-1.79,1.09-.37,2.23-.55,3.37-.55.76-.07,1.52-.07,2.28,0,.78.15,1.54.36,2.28.64v15.28Z"/>
    <path class="cls-12" d="M176.49,371.64c-.51.01-1.02-.09-1.49-.3-.39-.2-.73-.49-.99-.84-.28-.46-.46-.96-.55-1.49-.08-.69-.08-1.39,0-2.08v-29.76h-5.36v29.46c-.17,2.43.5,4.84,1.88,6.85,1.42,1.61,3.52,2.46,5.65,2.28.51.05,1.03.05,1.54,0h1.49v-2.13l-.25-2.18h-.69l-1.24.2Z"/>
    <path class="cls-12" d="M186.66,337.56c-.46-.08-.93-.08-1.39,0-.4.16-.76.37-1.09.64-.29.3-.51.65-.64,1.04-.08.43-.08.86,0,1.29-.08.44-.08.9,0,1.34.27.8.89,1.42,1.69,1.69.48.08.96.08,1.44,0,.44.08.9.08,1.34,0,.8-.27,1.42-.89,1.69-1.69.16-.43.25-.88.25-1.34,0-.44-.09-.88-.25-1.29-.14-.39-.36-.75-.64-1.04-.31-.27-.66-.49-1.04-.64-.44-.08-.9-.08-1.34,0Z"/>
    <polygon class="cls-12" points="183.98 375.46 186.66 375.46 189.34 375.46 189.34 362.06 189.34 348.62 186.66 348.62 183.98 348.62 183.98 362.06 183.98 375.46"/>
    <path class="cls-12" d="M219,348.67h-5.31c-.23,1.38-.63,2.73-1.19,4.02-.52,1.23-1.21,2.38-2.03,3.42-.89,1.13-1.91,2.17-3.03,3.08-1.35,1.06-2.76,2.03-4.22,2.93v-24.8h-5.36v37.95h5.36v-7.94l2.38-1.44,2.28-1.54,3.57,5.56,3.62,5.56h5.9l-4.61-7.09-4.66-7.04c1.98-1.73,3.65-3.77,4.96-6.05,1.27-1.99,2.06-4.25,2.33-6.6Z"/>
    <path class="cls-12" d="M236.21,348.03c-1.79-.05-3.56.29-5.21.99-1.54.64-2.92,1.62-4.02,2.88-1.14,1.32-2.02,2.86-2.58,4.51-.6,1.82-.89,3.74-.84,5.65-.04,1.99.28,3.98.94,5.85,1.2,3.4,3.88,6.07,7.29,7.24,1.84.66,3.79.98,5.75.94,1.66.01,3.33-.13,4.96-.45,1.47-.31,2.9-.77,4.27-1.39l-.45-2.18-.45-2.18c-1.24.55-2.54.96-3.87,1.24-1.27.28-2.57.41-3.87.4-2.35.15-4.67-.64-6.45-2.18-1.63-1.66-2.57-3.88-2.63-6.2h18.1v-3.52c.02-1.6-.23-3.2-.74-4.71-.47-1.41-1.25-2.7-2.28-3.77-.98-1.07-2.18-1.92-3.52-2.48-1.42-.49-2.92-.7-4.41-.64ZM242.11,359.88h-13c.07-1.08.32-2.13.74-3.12.34-.87.83-1.67,1.44-2.38.62-.64,1.36-1.15,2.18-1.49.87-.33,1.8-.49,2.73-.5.88,0,1.76.17,2.58.5.73.31,1.38.78,1.88,1.39.49.64.86,1.36,1.09,2.13.26.85.4,1.74.4,2.63v.4s-.05.35-.05.45Z"/>
    <path class="cls-12" d="M269.39,339.59c-.72.91-1.26,1.96-1.59,3.08-.4,1.32-.58,2.69-.55,4.07v2.18h-3.82v4.32h3.82v22.47h5.36v-22.72h6.8v-4.32h-6.8v-2.28c-.1-1.37.27-2.73,1.04-3.87.76-.9,1.9-1.38,3.08-1.29h1.19l1.84.3.25-1.93.45-2.08c-.85-.23-1.71-.39-2.58-.5h-2.18c-1.3-.04-2.6.18-3.82.64-.96.45-1.81,1.11-2.48,1.93Z"/>
    <path class="cls-12" d="M291.37,348.03c-1.56,0-3.12.13-4.66.4-1.38.24-2.72.62-4.02,1.14l.55,2.13.5,2.13c1.11-.43,2.25-.77,3.42-.99,1.23-.2,2.47-.3,3.72-.3,1.66-.14,3.31.36,4.61,1.39,1.12,1.15,1.7,2.72,1.59,4.32v2.23c-.9-.2-1.81-.35-2.73-.45-.97-.05-1.95-.05-2.93,0-1.42-.02-2.84.14-4.22.5-1.21.34-2.35.9-3.37,1.64-.9.66-1.64,1.53-2.13,2.53-.47,1.11-.71,2.31-.69,3.52-.02,1.12.2,2.24.64,3.27.49.98,1.18,1.84,2.03,2.53.97.79,2.11,1.37,3.32,1.69,1.44.38,2.93.56,4.41.55,2.02.02,4.03-.18,6-.6,1.73-.36,3.41-.98,4.96-1.84v-15.33c.02-1.52-.22-3.03-.69-4.46-.45-1.24-1.16-2.37-2.08-3.32-.98-.91-2.15-1.58-3.42-1.98-1.55-.51-3.18-.75-4.81-.69ZM297.07,370.99c-.7.38-1.45.66-2.23.84-.97.08-1.95.08-2.93,0-1.46.11-2.92-.26-4.17-1.04-.96-.76-1.48-1.95-1.39-3.17-.11-1.28.43-2.53,1.44-3.32,1.26-.84,2.76-1.24,4.27-1.14.83-.05,1.65-.05,2.48,0l2.53.5v7.34Z"/>
    <path class="cls-12" d="M338.34,348.03c-1.56,0-3.11.2-4.61.6-1.56.42-3.06,1.04-4.46,1.84-.96-.82-2.07-1.44-3.27-1.84-1.4-.41-2.86-.61-4.32-.6-1.97,0-3.93.19-5.85.6-1.9.43-3.74,1.06-5.51,1.88v24.8h5.36v-21.43c.88-.45,1.81-.79,2.78-.99.99-.25,2.01-.36,3.03-.35,1.57-.12,3.11.42,4.27,1.49,1.04,1.29,1.55,2.92,1.44,4.56v16.86h5.26v-16.02c.08-.87.08-1.75,0-2.63-.08-.74-.24-1.48-.5-2.18.91-.63,1.91-1.09,2.98-1.39,1.1-.3,2.23-.45,3.37-.45,1.6-.12,3.17.42,4.36,1.49,1.04,1.29,1.55,2.92,1.44,4.56v16.86h5.36v-17.46c.02-1.47-.22-2.93-.69-4.32-.47-1.2-1.18-2.3-2.08-3.22-.98-.91-2.15-1.58-3.42-1.98-1.58-.53-3.25-.76-4.91-.69Z"/>
    <path class="cls-12" d="M360.07,337.56c-.46-.08-.93-.08-1.39,0-.38.16-.73.37-1.04.64-.3.29-.54.65-.69,1.04-.08.43-.08.86,0,1.29-.08.44-.08.9,0,1.34.27.8.89,1.42,1.69,1.69.48.08.96.08,1.44,0,.46.07.93.07,1.39,0,.39-.14.75-.36,1.04-.64.27-.31.49-.66.64-1.04.08-.44.08-.9,0-1.34.08-.43.08-.86,0-1.29-.27-.8-.89-1.42-1.69-1.69-.46-.08-.93-.08-1.39,0Z"/>
    <polygon class="cls-12" points="357.39 375.46 360.07 375.46 362.74 375.46 362.74 362.06 362.74 348.62 360.07 348.62 357.39 348.62 357.39 362.06 357.39 375.46"/>
    <path class="cls-12" d="M379.61,371.64c-.51,0-1.02-.09-1.49-.3-.39-.2-.73-.49-.99-.84-.28-.46-.46-.96-.55-1.49-.08-.69-.08-1.39,0-2.08v-29.76h-5.36v29.46c-.17,2.43.5,4.84,1.88,6.85,1.43,1.6,3.52,2.44,5.65,2.28.51.05,1.03.05,1.54,0h1.49v-4.32h-.69l-1.49.2Z"/>
    <path class="cls-12" d="M401.68,348.67c0,2.13-.45,4.17-.79,6.05-.31,1.78-.72,3.53-1.24,5.26-.5,1.64-1.09,3.32-1.74,4.96s-1.49,3.47-2.38,5.26c-.99-1.69-1.88-3.37-2.73-4.96s-1.49-3.37-2.13-4.96c-.65-1.89-1.17-3.83-1.54-5.8-.41-1.98-.71-3.99-.89-6h-5.36c.25,2.46.69,4.9,1.29,7.29.47,2.18,1.12,4.32,1.93,6.4.86,2.1,1.88,4.14,3.03,6.1,1.07,2.1,2.28,4.12,3.62,6.05-.98,1.62-2.28,3.02-3.82,4.12-1.59,1.07-3.38,1.82-5.26,2.18l.45,2.28.45,2.33c2.84-.58,5.49-1.84,7.74-3.67,2.52-2.13,4.62-4.7,6.2-7.59,2.23-4.05,4.07-8.3,5.51-12.7,1.41-4.08,2.35-8.31,2.83-12.6h-5.16Z"/>
    <path class="cls-15" d="M0,295.99l5.9-7.04c3.68,3.41,8.48,5.37,13.49,5.51,4.07,0,6.55-1.64,6.55-4.27h0c0-2.53-1.54-3.82-9.13-5.75-9.13-2.33-14.88-4.96-14.88-13.84h0c0-8.23,6.6-13.69,15.82-13.69,6.04-.14,11.94,1.8,16.72,5.51l-5.16,7.74c-3.4-2.64-7.51-4.2-11.81-4.46-3.77,0-5.8,1.74-5.8,3.92h0c0,2.98,1.93,3.92,9.92,5.95,9.18,2.38,14.34,5.7,14.34,13.59h0c0,9.03-6.85,14.04-16.62,14.04-7.12.08-14.01-2.48-19.34-7.19ZM42.36,292.62h0c0-7.59,5.75-11.06,13.99-11.06,2.89-.02,5.76.47,8.48,1.44v-.6c0-4.07-2.53-6.35-7.44-6.35-3.28-.01-6.54.63-9.57,1.88l-2.48-7.79c4.21-1.95,8.8-2.92,13.44-2.83,4.27-.33,8.5,1.08,11.71,3.92,2.69,3.03,4.05,7.02,3.77,11.06v19.84h-9.52v-3.72c-2.66,2.94-6.5,4.55-10.47,4.36-5.88.66-11.18-3.57-11.85-9.45-.03-.24-.05-.48-.06-.72ZM64.93,290.39v-1.74c-1.96-.89-4.09-1.35-6.25-1.34-4.22,0-6.8,1.69-6.8,4.96h0c0,2.63,2.18,4.17,5.36,4.17,4.51,0,7.69-2.48,7.69-6.05ZM83.43,290.39v-22.47h9.92v19.34c0,4.66,2.23,7.04,5.95,7.04s6.15-2.38,6.15-7.04v-19.34h9.92v34.72h-9.92v-4.96c-2.24,3.44-6.06,5.52-10.17,5.56-6.26.33-11.61-4.48-11.94-10.75-.04-.7,0-1.4.08-2.1ZM123.41,285.43h0c0-11.56,7.54-17.91,15.77-17.91,4.18-.13,8.19,1.7,10.81,4.96v-17.21h9.92v47.22h-9.92v-4.96c-2.43,3.57-6.49,5.68-10.81,5.61-9.01-.26-16.1-7.78-15.84-16.79,0-.34.03-.68.06-1.02v.1ZM150.1,285.43h0c.51-4.66-2.86-8.84-7.52-9.35-4.66-.51-8.84,2.86-9.35,7.52-.07.61-.07,1.22,0,1.83h0c-.51,4.66,2.86,8.84,7.52,9.35,4.66.51,8.84-2.86,9.35-7.52.07-.61.07-1.22,0-1.83ZM169.94,255.67h10.32v8.73h-10.47l.15-8.73ZM169.94,268.22h9.92v34.72h-9.92v-34.72ZM209.62,280.37h0c-.11-12.82,10.19-23.3,23.01-23.42.25,0,.5,0,.75,0,6.5-.34,12.88,1.88,17.76,6.2l-6.4,6.99c-3.19-3.04-7.45-4.7-11.85-4.61-7.5.31-13.33,6.64-13.02,14.14,0,.13.01.26.02.39h0c-.44,7.47,5.26,13.87,12.72,14.31.34.02.68.03,1.02.02,3.33.1,6.6-.84,9.37-2.68v-6.7h-9.92v-8.48h19.84v19.84c-5.36,4.66-12.24,7.22-19.34,7.19-12.52.78-23.3-8.75-24.08-21.27-.05-.75-.06-1.49-.03-2.24l.15.3ZM260.61,285.77h0c-.44-9.52,6.93-17.6,16.45-18.04.22-.01.44-.02.66-.02,11.61,0,16.86,9.03,16.86,18.85v2.58h-24.5c.66,4.11,4.33,7.05,8.48,6.8,3.19.05,6.25-1.25,8.43-3.57l5.61,4.96c-6.48,7.73-17.99,8.74-25.71,2.27-4.05-3.4-6.44-8.39-6.53-13.67l.25-.15ZM284.97,282.55c.03-4.08-3.26-7.41-7.34-7.44-.02,0-.03,0-.05,0-4.07,0-6.7,2.93-7.49,7.39l14.88.05ZM302.82,267.67h9.92v7.44c1.45-4.82,6.04-7.99,11.06-7.64v10.12h-.5c-6.55,0-10.57,3.92-10.57,12.2v12.8h-9.92v-34.92ZM330.85,267.67h9.92v4.96c2.28-3.42,6.11-5.5,10.22-5.56,4.1-.27,7.98,1.88,9.92,5.51,2.72-3.51,6.92-5.55,11.36-5.51,7.34,0,11.71,4.41,11.71,12.75v22.57h-9.92v-19.34c0-4.66-2.03-7.04-5.75-7.04s-5.95,2.38-5.95,7.04v19.34h-9.92v-19.34c0-4.66-2.08-7.04-5.75-7.04s-5.95,2.38-5.95,7.04v19.34h-9.92l.05-34.72ZM391.17,292.47h0c0-7.59,5.75-11.06,13.99-11.06,2.89-.02,5.76.47,8.48,1.44v-.6c0-4.07-2.53-6.35-7.44-6.35-3.28-.01-6.54.63-9.57,1.88l-2.53-7.64c4.22-1.96,8.84-2.92,13.49-2.83,4.27-.32,8.49,1.1,11.71,3.92,2.69,3.03,4.04,7.02,3.72,11.06v19.84h-9.57v-3.72c-2.66,2.94-6.5,4.55-10.47,4.36-5.88.66-11.18-3.57-11.85-9.45-.03-.24-.05-.48-.06-.72l.1-.15ZM413.74,290.24v-1.74c-1.96-.89-4.09-1.35-6.25-1.34-4.22,0-6.8,1.69-6.8,4.96h0c0,2.63,2.18,4.17,5.36,4.17,4.51.15,7.59-2.33,7.59-5.9l.1-.15ZM432.48,267.77h9.92v4.96c2.2-3.37,5.9-5.44,9.92-5.56,6.29-.3,11.64,4.56,11.94,10.85.03.68,0,1.37-.09,2.05v22.42h-9.92v-19.34c0-4.66-2.23-7.04-5.95-7.04s-6.15,2.38-6.15,7.04v19.34h-9.92l.25-34.72ZM496.12,257.15h4.96v20.14h26.14v-19.99h4.96v45.29h-4.96v-20.39h-26.14v20.39h-4.96v-45.44ZM543.35,285.87h0c1.03-9.59,9.63-16.53,19.22-15.5,8.17.87,14.63,7.33,15.5,15.5h0c.06,9.59-7.67,17.41-17.26,17.46-.08,0-.17,0-.25,0-9.48.08-17.23-7.53-17.31-17.01,0-.1,0-.2,0-.3l.1-.15ZM573.11,285.87h0c.25-6.98-5.21-12.84-12.19-13.09-.07,0-.14,0-.21,0-6.85.08-12.34,5.69-12.26,12.54,0,.14,0,.27.01.41h0c-.25,6.93,5.17,12.74,12.09,12.99.09,0,.17,0,.26,0,6.82-.08,12.29-5.67,12.21-12.49,0-.07,0-.14,0-.2l.1-.15ZM585.41,298.18l2.53-3.57c3.28,2.65,7.34,4.17,11.56,4.32,4.02,0,6.89-2.08,6.89-5.31h0c0-3.37-3.92-4.66-8.33-5.9-4.96-1.49-11.06-3.27-11.06-9.42h0c.13-5.48,4.67-9.81,10.15-9.68.42,0,.84.05,1.26.11,4.27.08,8.43,1.37,12,3.72l-2.23,3.72c-2.95-1.97-6.38-3.08-9.92-3.22-3.92,0-6.45,2.08-6.45,4.96h0c0,3.12,4.12,4.36,8.58,5.75,5.21,1.54,10.76,3.52,10.76,9.57h0c-.28,5.8-5.2,10.28-11.01,10-.3-.01-.6-.04-.9-.08-5.05-.03-9.95-1.72-13.94-4.81l.1-.15ZM621.37,269.01h4.96v6.75c2.64-4.58,7.51-7.41,12.8-7.44,9.01.17,16.17,7.62,16,16.63,0,.23-.01.45-.03.68h0c.58,9.02-6.27,16.8-15.29,17.38-.23.01-.45.02-.68.03-5.22.03-10.08-2.68-12.8-7.14v16.77h-4.96v-43.65ZM649.99,285.82h0c.49-6.61-4.46-12.37-11.08-12.87-.23-.02-.45-.03-.68-.03-6.87.19-12.29,5.91-12.1,12.79,0,.02,0,.04,0,.06h0c-.25,6.9,5.14,12.69,12.04,12.94.02,0,.04,0,.06,0,6.52-.06,11.76-5.4,11.69-11.92,0-.28-.01-.56-.04-.83l.1-.15ZM665.42,256.06h5.65v5.51h-5.65v-5.51ZM665.71,268.86h4.96v33.43h-4.96v-33.43ZM685.01,293.66v-20.09h-4.66v-4.41h4.66v-9.92h4.96v9.92h10.61v4.41h-10.61v19.54c-.36,2.72,1.56,5.21,4.28,5.56.44.06.89.06,1.33,0,1.73.02,3.43-.39,4.96-1.19v4.27c-1.84.99-3.91,1.49-6,1.44-4.67.63-8.97-2.64-9.6-7.31-.1-.7-.1-1.41-.02-2.12l.1-.1ZM707.83,292.82h0c0-7.19,5.8-10.91,14.29-10.91,3.46-.04,6.9.42,10.22,1.39v-1.04c0-5.9-3.62-9.03-9.92-9.03-3.44.04-6.84.85-9.92,2.38l-1.49-4.07c3.78-1.87,7.94-2.84,12.15-2.83,3.95-.26,7.84,1.06,10.81,3.67,2.48,2.68,3.74,6.28,3.47,9.92v20.44h-4.96v-4.96c-2.89,3.7-7.36,5.81-12.05,5.7-6.14.83-11.78-3.47-12.61-9.61-.04-.32-.07-.64-.09-.96l.1-.1ZM732.63,290.19v-3.08c-3.22-.96-6.56-1.44-9.92-1.44-6.2,0-9.92,2.73-9.92,6.75h0c0,4.22,3.87,6.7,8.38,6.7,5.44.69,10.4-3.16,11.08-8.6,0-.08.02-.15.03-.23l.35-.1ZM749.44,255.47h4.96v47.22h-4.96v-47.22ZM15.33,228.14c-1.02-.03-2,.39-2.68,1.14-1.46,1.55-1.46,3.96,0,5.51.7.72,1.67,1.12,2.68,1.09,1.03.05,2.03-.37,2.73-1.14,1.46-1.55,1.46-3.96,0-5.51-.81-.94-2.05-1.39-3.27-1.19l.55.1ZM24.8,228.14c-1.02-.03-2,.39-2.68,1.14-1.46,1.55-1.46,3.96,0,5.51.7.72,1.67,1.12,2.68,1.09.88-.1,1.68-.55,2.23-1.24,1.46-1.55,1.46-3.96,0-5.51-.71-.76-1.73-1.16-2.78-1.09l.55.1ZM62.75,217.52h-11.9v-9.13c.01-1.78-.22-3.55-.69-5.26-.38-1.48-1.11-2.84-2.13-3.97-1.13-1.16-2.52-2.01-4.07-2.48-2.25-.75-4.62-1.07-6.99-.94h-4.41l-3.62.4c-1.29,0-2.43.35-3.42.55v20.54h-3.77c-2.26.05-4.51-.2-6.7-.74-1.62-.36-3.13-1.09-4.41-2.13-1.1-1.01-1.93-2.29-2.38-3.72-.46-1.61-.7-3.28-.69-4.96,0-1.67.16-3.33.5-4.96.31-1.57.79-3.1,1.44-4.56l-7.99,1.29c-.49,1.37-.84,2.78-1.04,4.22-.31,1.64-.46,3.3-.45,4.96-.04,2.39.32,4.78,1.09,7.04.71,2.05,1.94,3.88,3.57,5.31,1.87,1.59,4.08,2.74,6.45,3.37,3.24.85,6.58,1.24,9.92,1.14h11.85v-21.43h3.77c1.82-.19,3.63.43,4.96,1.69,1.09,1.73,1.58,3.77,1.39,5.8v14.14h26.79v-26.79h-7.59l.55,20.63ZM66.52,183.94c-1.04-.01-2.05.4-2.78,1.14-.77.74-1.18,1.77-1.14,2.83-.04,1.05.38,2.06,1.14,2.78,1.54,1.51,4.01,1.51,5.56,0,.73-.74,1.13-1.74,1.09-2.78.04-1.05-.36-2.07-1.09-2.83-.84-.93-2.08-1.4-3.32-1.24l.55.1ZM96.78,223.62h2.18c1.72-.04,3.41-.45,4.96-1.19,1.3-.72,2.33-1.86,2.93-3.22.48.65,1.05,1.23,1.69,1.74.72.6,1.52,1.08,2.38,1.44,1.16.43,2.35.75,3.57.94,1.64.21,3.3.31,4.96.3h30.21v-40.52h-7.99v34.32h-11.01v-8.53c.18-3.45-.94-6.85-3.12-9.52-2.61-2.61-6.25-3.92-9.92-3.57-2.24-.06-4.46.33-6.55,1.14-1.74.69-3.31,1.74-4.61,3.08-1.22,1.26-2.17,2.76-2.78,4.41-.59,1.59-.9,3.27-.94,4.96.03,1.27-.12,2.54-.45,3.77-.24.88-.69,1.69-1.29,2.38-.58.58-1.3,1.01-2.08,1.24-.92.27-1.87.4-2.83.4h-9.52v-34.08h-7.74v40.23l17.96.3ZM123.81,217.72h-4.32c-2.33.21-4.64-.5-6.45-1.98-1.51-1.62-2.26-3.8-2.08-6-.09-2.01.54-3.98,1.79-5.56,1.22-1.47,3.06-2.28,4.96-2.18,1.71-.1,3.37.62,4.46,1.93,1.2,1.83,1.76,4.01,1.59,6.2l.05,7.59ZM177.48,217.72h-18.2v5.9h25.15v-39.53h-7.49l.55,33.63ZM173.31,213.46l-8.28-29.12-7.49.99,8.09,28.12h7.69ZM169.3,177.25h-3.27c-1.06.08-2.12-.12-3.08-.6-.52-.36-.84-.95-.84-1.59,0-.55.26-1.06.69-1.39.6-.4,1.31-.59,2.03-.55.59-.05,1.19-.05,1.79,0h1.04l.69-4.27c-.43-.06-.86-.06-1.29,0h-2.08c-1.29-.02-2.58.16-3.82.55-.95.31-1.82.79-2.58,1.44-.64.55-1.13,1.25-1.44,2.03-.29.76-.44,1.57-.45,2.38,0,.45.11.88.3,1.29.14.4.42.74.79.94h-3.77v4.22h14.88l.4-4.46ZM194.64,223.62h6.99v-40.52h-7.54l.55,40.52ZM237.1,228.34c-1.02-.04-2,.37-2.68,1.14-1.46,1.55-1.46,3.96,0,5.51.69.74,1.67,1.13,2.68,1.09,1.03.04,2.03-.38,2.73-1.14,1.46-1.55,1.46-3.96,0-5.51-.78-1-2.02-1.52-3.27-1.39l.55.3ZM269.79,199.47c-1.13-1.16-2.52-2.01-4.07-2.48-2.19-.83-4.51-1.25-6.85-1.24h-4.41l-3.67.4-3.42.55v20.54h-3.87c-2.27.05-4.54-.2-6.75-.74-1.6-.36-3.1-1.09-4.36-2.13-1.1-1.01-1.93-2.29-2.38-3.72-.46-1.61-.7-3.28-.69-4.96,0-1.67.16-3.33.5-4.96.31-1.57.79-3.1,1.44-4.56l-7.99,1.29c-.49,1.37-.85,2.78-1.09,4.22-.27,1.64-.4,3.3-.4,4.96-.04,2.39.32,4.78,1.09,7.04.69,2.06,1.92,3.89,3.57,5.31,1.87,1.59,4.08,2.74,6.45,3.37,3.24.85,6.58,1.24,9.92,1.14h11.95v-21.43h3.72c1.82-.18,3.63.43,4.96,1.69,1.09,1.73,1.58,3.77,1.39,5.8v7.29h7.29v-8.43c.03-1.77-.19-3.54-.64-5.26-.43-1.48-1.19-2.84-2.23-3.97l.55.3ZM246.58,228.34c-1.02-.04-2,.37-2.68,1.14-1.46,1.55-1.46,3.96,0,5.51,1.47,1.48,3.85,1.49,5.33.03,0,0,.02-.02.03-.03,1.46-1.55,1.46-3.96,0-5.51-.75-1.01-1.97-1.55-3.22-1.44l.55.3ZM298.61,203.53c-1.64-2.03-3.66-3.71-5.95-4.96-2.58-1.43-5.33-2.51-8.18-3.22l-1.84,6.3c3.82.79,7.29,2.77,9.92,5.65,2.28,2.96,3.5,6.59,3.47,10.32h-17.41v5.9h24.31v-3.72c.06-3.17-.36-6.33-1.24-9.37-.72-2.6-1.95-5.03-3.62-7.14l.55.25ZM435.96,217.67h-12.1v-7.39c-.01-2.78-.18-5.57-.5-8.33-.32-2.5-.76-4.99-1.34-7.44l-7.34.99c.53,2.36.92,4.74,1.19,7.14.31,2.65.48,5.32.5,7.99v3.22c0,1.29,0,2.48-.3,3.62h-1.49c-1.09.07-2.18.07-3.27,0-.73-.09-1.43-.36-2.03-.79-.54-.42-.93-1.02-1.09-1.69-.27-.88-.38-1.81-.35-2.73v-14.58h-7.34v12.95c.17,1.97-.22,3.95-1.14,5.7-.81,1.06-2.09,1.65-3.42,1.59-.72.03-1.44-.13-2.08-.45-.52-.28-.93-.73-1.14-1.29-.31-.72-.5-1.49-.55-2.28-.06-1.11-.06-2.22,0-3.32v-10.61h-7.69v10.37c.02,1.16-.08,2.33-.3,3.47-.14.78-.44,1.53-.89,2.18-.4.52-.96.9-1.59,1.09-.77.26-1.57.38-2.38.35h-5.7c-1.14,0-2.27-.14-3.37-.4-1-.29-1.98-.65-2.93-1.09,1.77-1.35,3.25-3.04,4.36-4.96.92-1.78,1.41-3.75,1.44-5.75,0-1.22-.24-2.43-.69-3.57-.46-1.15-1.19-2.17-2.13-2.98-1.1-.91-2.36-1.6-3.72-2.03-1.77-.61-3.63-.91-5.51-.89-1.45.02-2.9.2-4.32.55-1.49.38-2.94.86-4.36,1.44-1.42.57-2.8,1.25-4.12,2.03-1.26.71-2.49,1.49-3.67,2.33l-.64,5.36c1.21.32,2.38.79,3.47,1.39,1.05.61,2.06,1.29,3.03,2.03.94.74,1.88,1.54,2.78,2.38l2.73,2.53c-1.93.61-3.9,1.05-5.9,1.34-2.45.31-4.92.46-7.39.45h-6.8v-19.84l-3.42-.99c-1.14-.25-2.38-.5-3.82-.69-1.64-.22-3.3-.32-4.96-.3-2.32-.05-4.63.35-6.8,1.19-1.87.68-3.56,1.76-4.96,3.17-1.23,1.3-2.17,2.86-2.73,4.56-.6,1.74-.9,3.57-.89,5.41.19,1.91.69,3.77,1.49,5.51.53,1.59,1.45,3.03,2.68,4.17,1.34,1.23,2.96,2.13,4.71,2.63,2.3.69,4.69,1,7.09.94h4.41v.89c.2,2.27-.82,4.48-2.68,5.8-2.17,1.28-4.67,1.9-7.19,1.79h-3.22l-2.88-.3-2.93-.69-.45,6.15,2.73.4h5.95c2.77.06,5.53-.3,8.18-1.09,2.03-.62,3.91-1.67,5.51-3.08,1.4-1.24,2.48-2.78,3.17-4.51.66-1.78,1-3.66.99-5.56h6.3c3.53.04,7.05-.28,10.52-.94,2.87-.53,5.67-1.4,8.33-2.58,1.54,1.04,3.21,1.89,4.96,2.53,2.12.72,4.36,1.05,6.6.99h6.65c1.71.1,3.42-.24,4.96-.99,1.2-.65,2.13-1.7,2.63-2.98.47,1.4,1.47,2.55,2.78,3.22,1.5.88,3.22,1.31,4.96,1.24,1.95.07,3.88-.37,5.61-1.29,1.3-.71,2.36-1.8,3.03-3.12.37.73.88,1.39,1.49,1.93.65.52,1.39.93,2.18,1.19.94.35,1.93.56,2.93.64h33.28v-39.88h-7.64l.55,34.57ZM329.06,217.67h-3.62c-2.55.36-5.14-.4-7.09-2.08-1.45-1.63-2.19-3.77-2.03-5.95-.09-2.01.54-3.98,1.79-5.56,1.22-1.46,3.06-2.27,4.96-2.18.73-.06,1.46-.06,2.18,0,.6.07,1.2.19,1.79.35.49.12.98.29,1.44.5l.6,14.93ZM365.27,209.64c-.68,1.19-1.59,2.24-2.68,3.08l-3.22-2.48-2.53-2.18c-.83-.72-1.71-1.38-2.63-1.98-.9-.57-1.85-1.07-2.83-1.49l1.79-1.14c.69-.4,1.4-.77,2.13-1.09.77-.35,1.57-.63,2.38-.84.77-.23,1.57-.35,2.38-.35,1.49-.13,2.97.37,4.07,1.39.87.93,1.35,2.15,1.34,3.42.01,1.18-.24,2.35-.74,3.42l.55.25ZM453.22,223.57h7.54v-40.48h-8.09l.55,40.48ZM552.42,190.54c.82.02,1.61-.31,2.18-.89.6-.56.93-1.36.89-2.18,0-.83-.31-1.63-.89-2.23-.57-.59-1.36-.91-2.18-.89-.84-.02-1.64.3-2.23.89-.54.62-.84,1.41-.84,2.23-.03.81.28,1.6.84,2.18.41.34.91.56,1.44.64l.79.25ZM595.63,184.74c.78.02,1.54-.29,2.08-.84.52-.57.81-1.31.79-2.08.03-.77-.25-1.53-.79-2.08-.53-.59-1.29-.92-2.08-.89-.78-.01-1.52.31-2.03.89-1.13,1.16-1.13,3.01,0,4.17.36.3.78.5,1.24.6l.79.25ZM591.46,191.53c.8.01,1.58-.31,2.13-.89.59-.57.91-1.36.89-2.18.02-.82-.3-1.61-.89-2.18-.57-.55-1.34-.85-2.13-.84-.82-.03-1.62.29-2.18.89-.58.56-.88,1.33-.84,2.13-.03.81.28,1.6.84,2.18.39.34.88.56,1.39.64l.79.25ZM596.82,188.46c-.02.82.31,1.61.89,2.18.57.59,1.36.91,2.18.89.8.01,1.58-.31,2.13-.89.55-.59.85-1.37.84-2.18.02-.81-.29-1.59-.84-2.18-.57-.55-1.34-.85-2.13-.84-.82-.02-1.61.3-2.18.89-.83.33-1.45,1.03-1.69,1.88l.79.25ZM633.67,191.53c.8.01,1.58-.31,2.13-.89.59-.57.91-1.36.89-2.18.02-.82-.3-1.61-.89-2.18-.57-.55-1.34-.85-2.13-.84-.82-.02-1.61.3-2.18.89-.55.57-.86,1.34-.84,2.13,0,.81.29,1.59.84,2.18.4.33.88.56,1.39.64l.79.25ZM625.24,191.53c.81.02,1.58-.3,2.13-.89.59-.57.91-1.36.89-2.18.02-.82-.3-1.61-.89-2.18-.57-.55-1.34-.86-2.13-.84-1.67,0-3.03,1.35-3.03,3.03h0c-.02.82.31,1.61.89,2.18.38.33.84.55,1.34.64l.79.25ZM733.52,219.41h-12.8v-10.71c.2-3.42-.88-6.8-3.03-9.47-2.45-2.39-5.82-3.6-9.23-3.32-2.12-.03-4.23.35-6.2,1.14-1.69.69-3.22,1.74-4.46,3.08-1.23,1.24-2.15,2.75-2.68,4.41-.6,1.7-.9,3.5-.89,5.31.03,1.57-.15,3.14-.55,4.66-.25,1.05-.72,2.03-1.39,2.88-.62.64-1.38,1.12-2.23,1.39-.93.29-1.9.42-2.88.4h-4.32c0-1.39,0-2.83.25-4.27s0-2.83,0-4.12c.01-2.94-.19-5.87-.6-8.78-.29-2.5-.79-4.97-1.49-7.39l-4.96.89c.59,2.33,1.04,4.7,1.34,7.09.37,2.88.55,5.78.55,8.68v7.89h-1.88c-1.3.09-2.61.09-3.92,0-.92-.12-1.8-.44-2.58-.94-.68-.53-1.18-1.26-1.44-2.08-.29-1.2-.42-2.44-.4-3.67v-14.78h-4.96v12.95c.05,1.51-.09,3.03-.4,4.51-.22,1.01-.62,1.97-1.19,2.83-.47.66-1.13,1.16-1.88,1.44-.76.31-1.57.46-2.38.45-.94.04-1.86-.18-2.68-.64-.65-.44-1.15-1.06-1.44-1.79-.33-.92-.52-1.9-.55-2.88v-14.58h-5.26v11.41c.02,1.25-.08,2.49-.3,3.72-.17.88-.54,1.72-1.09,2.43-.47.61-1.11,1.06-1.84,1.29-.85.26-1.74.37-2.63.35h-8.98v-22.62h-5.26v22.62h-13.79l.3-4.27v-4.12c0-2.94-.18-5.87-.55-8.78-.34-2.49-.83-4.96-1.49-7.39l-4.96.89c.59,2.33,1.04,4.7,1.34,7.09.39,2.88.58,5.78.55,8.68v7.89h-1.88c-1.3.09-2.61.09-3.92,0-.92-.12-1.8-.44-2.58-.94-.68-.52-1.17-1.26-1.39-2.08-.33-1.19-.48-2.43-.45-3.67v-14.78h-4.96v12.95c.03,1.52-.12,3.03-.45,4.51-.22,1.01-.62,1.97-1.19,2.83-.47.66-1.13,1.16-1.88,1.44-.76.31-1.57.46-2.38.45-.94.04-1.86-.18-2.68-.64-.65-.44-1.15-1.06-1.44-1.79-.33-.92-.52-1.9-.55-2.88v-14.58h-4.96v11.41c0,1.25-.11,2.49-.35,3.72-.17.88-.54,1.72-1.09,2.43-.45.6-1.07,1.06-1.79,1.29-.87.26-1.77.37-2.68.35h-10.52c1.5-1.11,2.65-2.63,3.32-4.36.75-1.86,1.14-3.85,1.14-5.85.06-2.07-.26-4.14-.94-6.1-.56-1.55-1.48-2.94-2.68-4.07-1.17-1.06-2.56-1.85-4.07-2.33-1.61-.5-3.28-.75-4.96-.74-1.99-.04-3.96.34-5.8,1.09-1.65.67-3.14,1.69-4.36,2.98-1.2,1.27-2.12,2.77-2.73,4.41-.62,1.75-.94,3.6-.94,5.46-.04,1.98.29,3.95.99,5.8.57,1.47,1.53,2.76,2.78,3.72h-12.2v-10.76c.03-1.77-.19-3.54-.64-5.26-.4-1.45-1.13-2.79-2.13-3.92-1.09-1.12-2.43-1.97-3.92-2.48-1.96-.6-4-.89-6.05-.84-1.29-.08-2.58-.08-3.87,0l-3.37.4-3.17.5v22.17h-4.96c-2.5.06-5.01-.21-7.44-.79-1.83-.41-3.54-1.26-4.96-2.48-1.2-1.09-2.06-2.5-2.48-4.07-.52-1.86-.77-3.78-.74-5.7.02-1.67.22-3.33.6-4.96.35-1.7.89-3.37,1.59-4.96l-5.56.99c-.61,1.37-1.05,2.8-1.34,4.27-.32,1.63-.49,3.29-.5,4.96-.05,2.43.32,4.84,1.09,7.14.7,2.01,1.92,3.81,3.52,5.21,1.79,1.53,3.91,2.62,6.2,3.17,3,.75,6.09,1.1,9.18,1.04h10.61v-22.07h4.81c2.26-.21,4.5.53,6.2,2.03,1.47,2.02,2.14,4.51,1.88,6.99v14.24h46.18c1.73.09,3.45-.33,4.96-1.19,1.2-.78,2.1-1.93,2.58-3.27.44,1.42,1.33,2.65,2.53,3.52,1.47.97,3.2,1.46,4.96,1.39,1.14.02,2.28-.13,3.37-.45.89-.26,1.74-.64,2.53-1.14.64-.44,1.21-.97,1.69-1.59.43-.55.77-1.17.99-1.84.38.84.9,1.62,1.54,2.28.68.61,1.47,1.09,2.33,1.39,1.05.39,2.15.62,3.27.69,1.54.09,3.08.09,4.61,0h33.58c1.73.09,3.45-.33,4.96-1.19,1.18-.79,2.08-1.94,2.58-3.27.44,1.42,1.33,2.65,2.53,3.52,1.46.98,3.2,1.47,4.96,1.39,1.16.02,2.31-.13,3.42-.45.89-.27,1.74-.65,2.53-1.14.64-.44,1.21-.97,1.69-1.59.43-.55.77-1.17.99-1.84.38.84.9,1.62,1.54,2.28.67.6,1.44,1.08,2.28,1.39,1.07.38,2.19.62,3.32.69,1.54.09,3.08.09,4.61,0h13.29c1.76,0,3.49-.52,4.96-1.49,1.37-.89,2.35-2.25,2.78-3.82.48.79,1.04,1.52,1.69,2.18.73.69,1.57,1.26,2.48,1.69,1.18.54,2.43.91,3.72,1.09,1.75.31,3.53.44,5.31.4h28.82v-40.52h-5.26l-.1,36.31ZM558.77,213.8c-.36,1.12-.96,2.15-1.74,3.03-.71.77-1.57,1.38-2.53,1.79-.98.38-2.02.57-3.08.55-2.25.16-4.44-.76-5.9-2.48-1.53-2.09-2.27-4.66-2.08-7.24-.03-1.44.21-2.87.69-4.22.38-1.09.99-2.09,1.79-2.93.72-.75,1.6-1.33,2.58-1.69.95-.35,1.96-.53,2.98-.55,2.26-.15,4.47.77,5.95,2.48,1.41,2.03,2.09,4.48,1.93,6.94.03,1.46-.17,2.92-.6,4.32ZM714.77,219.16h-5.65c-2.86.29-5.73-.54-7.99-2.33-1.76-2.01-2.63-4.63-2.43-7.29-.12-2.49.67-4.94,2.23-6.89,1.61-1.76,3.92-2.71,6.3-2.58,2.08-.1,4.1.7,5.56,2.18,1.5,2.14,2.21,4.74,1.98,7.34v9.57ZM748.85,183.1v40.23h5.26v-40.23h-5.26Z"/>
    <path class="cls-2" d="M801.08,139.35c-159.47-30.31-81.3-170.93,8.04-84.32.6.64.56,1.65-.08,2.24-.43.4-1.05.53-1.61.34-8.02-3.39-16.6-5.26-25.3-5.51-42.06,0-39.04,58.53,19.84,84.32.71.55.84,1.58.29,2.3-.29.37-.72.6-1.18.63Z"/>
    <path class="cls-18" d="M799.29,196.34c149.85-101.78,77.58-203.96,21.92-143.5-.6.64-1.6.68-2.24.08-.48-.45-.64-1.15-.39-1.77,59.92-136.95,261.3,37.8-17.76,148.11-.89.26-1.83-.25-2.09-1.15-.19-.65.03-1.35.55-1.78Z"/>
    <path class="cls-8" d="M782.13,51.9c8.7.24,17.28,2.11,25.3,5.51.83.29,1.73-.15,2.02-.97.19-.56.07-1.17-.34-1.61-18.5-17.91-36.56-26.04-52.08-27.43-29.02,32.29-16.22,71.38,27.83,99.2-41.86-28.22-40.23-74.7-2.73-74.7Z"/>
    <path class="cls-5" d="M743.94,27.79c-18.72,2.64-33.13,17.87-34.72,36.71,10.37,38.94,48.86,65.67,93.6,74.01.44-.76.19-1.73-.57-2.17-.07-.04-.15-.08-.23-.11-1.39-.64-2.78-1.24-4.12-1.93-57.84-17.91-98.41-58.63-53.97-106.5Z"/>
    <path class="cls-6" d="M757.03,27.35c-4.37-.41-8.77-.26-13.09.45-44.64,47.87-3.87,88.59,54.02,106.5-4.64-2.24-9.12-4.81-13.39-7.69h.3c-44.05-27.88-56.84-66.96-27.83-99.25Z"/>
    <path class="cls-4" d="M801.08,139.35c.72.17,1.46-.18,1.79-.84-44.64-8.33-83.23-35.07-93.6-74.01-2.23,27.08,22.12,61.8,91.81,74.85Z"/>
    <path class="cls-3" d="M853.61,34.79c42.91-3.12,66.62,79.36-54.31,161.55-.72.59-.83,1.65-.24,2.37.43.53,1.13.74,1.78.55,41.91-16.57,72.96-34.72,95.29-52.78,1.84-3.57,3.67-7.29,5.46-11.21,27.08-58.18-10.02-104.66-47.97-100.49Z"/>
    <path class="cls-7" d="M937.73,34.09c-42.16-54.22-104.16-13.14-119.05,18.7h0c.53.7,1.53.84,2.22.31.12-.09.22-.19.31-.31,1.74-1.88,3.47-3.57,4.96-4.96,18.3-18.8,37-29.22,59.52-22.12,24.5,7.79,49.25,35.81,50.54,72.82,12.15-24.6,10.61-47.17,1.49-64.43Z"/>
    <path class="cls-16" d="M901.57,135.28c-1.79,3.92-3.62,7.64-5.46,11.21h0c16.82-12.9,30.62-29.32,40.43-48.11-1.29-37-26.04-65.03-50.54-72.82-22.57-7.09-41.27,3.32-59.52,22.12,7.36-7.22,16.93-11.76,27.18-12.9,37.9-4.17,75,42.31,47.92,100.49Z"/>
    <path class="cls-17" d="M818.59,51.16c-.28.51-.28,1.13,0,1.64,14.88-31.84,76.78-72.92,119.05-18.65-21.97-41.77-88.69-52.38-119.05,17.01Z"/>
  </g>
</svg>