<?xml version="1.0" encoding="UTF-8"?>
<svg id="Layer_1" data-name="Layer 1" xmlns="http://www.w3.org/2000/svg" xmlns:xlink="http://www.w3.org/1999/xlink" viewBox="0 0 975 306.85">
  <defs>
    <style>
      .cls-1 {
        fill: none;
      }

      .cls-2 {
        fill: url(#linear-gradient-8);
      }

      .cls-3 {
        fill: url(#linear-gradient-7);
      }

      .cls-4 {
        fill: url(#linear-gradient-5);
      }

      .cls-5 {
        fill: url(#linear-gradient-6);
      }

      .cls-6 {
        fill: url(#linear-gradient-4);
      }

      .cls-7 {
        fill: url(#linear-gradient-3);
      }

      .cls-8 {
        fill: url(#linear-gradient-2);
      }

      .cls-9 {
        fill: url(#linear-gradient);
      }

      .cls-10 {
        clip-path: url(#clippath-1);
      }

      .cls-11 {
        clip-path: url(#clippath-3);
      }

      .cls-12 {
        clip-path: url(#clippath-4);
      }

      .cls-13 {
        clip-path: url(#clippath-2);
      }

      .cls-14 {
        clip-path: url(#clippath-7);
      }

      .cls-15 {
        clip-path: url(#clippath-6);
      }

      .cls-16 {
        clip-path: url(#clippath-5);
      }

      .cls-17 {
        fill: #fff;
      }

      .cls-18 {
        fill: #f1f1f2;
      }

      .cls-19 {
        clip-path: url(#clippath);
      }
    </style>
    <clipPath id="clippath">
      <path class="cls-1" d="M819.58,122.11c-40.62-27.54-39.01-72.67-2.61-72.67,6.93,0,15.14,1.63,24.55,5.34,1.56.62,2.85-1.35,1.64-2.53-17.98-17.36-35.49-25.26-50.58-26.61-28.13,31.35-15.7,69.27,27.01,96.47"/>
    </clipPath>
    <linearGradient id="linear-gradient" x1="-799.69" y1="-1013.45" x2="-789.04" y2="-1013.45" gradientTransform="translate(-3630.29 5725.42) rotate(-180) scale(5.58 -5.58)" gradientUnits="userSpaceOnUse">
      <stop offset="0" stop-color="#f1f1f2"/>
      <stop offset="1" stop-color="#929497"/>
      <stop offset="1" stop-color="#929497"/>
    </linearGradient>
    <clipPath id="clippath-1">
      <path class="cls-1" d="M746.25,61.67c10.07,37.82,47.43,63.74,90.84,71.83.38-.76.21-1.79-.78-2.24-1.36-.59-2.69-1.2-3.98-1.82-56.2-17.43-95.58-56.92-52.45-103.36-19.11,3.19-32.17,17.83-33.64,35.59"/>
    </clipPath>
    <linearGradient id="linear-gradient-2" x1="-901.78" y1="-1454.84" x2="-891.13" y2="-1454.84" gradientTransform="translate(16015.47 9472.97) rotate(90) scale(10.47 -10.47)" gradientUnits="userSpaceOnUse">
      <stop offset="0" stop-color="#f1f1f2"/>
      <stop offset=".18" stop-color="#f1f1f2"/>
      <stop offset=".7" stop-color="#d0d2d3"/>
      <stop offset="1" stop-color="#d0d2d3"/>
    </linearGradient>
    <clipPath id="clippath-2">
      <path class="cls-1" d="M779.88,26.08c-43.13,46.44-3.76,85.94,52.44,103.35-4.73-2.29-9.06-4.81-12.99-7.49.07.05.16.12.24.17-42.71-27.21-55.14-65.11-27.01-96.47-1.59-.15-3.16-.22-4.69-.22-2.77,0-5.44.23-7.99.67"/>
    </clipPath>
    <linearGradient id="linear-gradient-3" x1="-807.7" y1="-1260.43" x2="-797.06" y2="-1260.43" gradientTransform="translate(11034.83 6642.42) rotate(90) scale(8.13 -8.13)" gradientUnits="userSpaceOnUse">
      <stop offset="0" stop-color="#f1f1f2"/>
      <stop offset=".09" stop-color="#f1f1f2"/>
      <stop offset=".23" stop-color="#dcdcde"/>
      <stop offset=".54" stop-color="#b4b5b7"/>
      <stop offset=".79" stop-color="#9b9d9f"/>
      <stop offset=".94" stop-color="#929497"/>
      <stop offset="1" stop-color="#929497"/>
    </linearGradient>
    <clipPath id="clippath-3">
      <path class="cls-1" d="M835.37,134.33c.81.15,1.44-.27,1.72-.83-43.41-8.09-80.77-34.01-90.84-71.83-2.16,26.44,21.41,59.79,89.12,72.66"/>
    </clipPath>
    <linearGradient id="linear-gradient-4" x1="-485.12" y1="-1699.64" x2="-474.48" y2="-1699.64" gradientTransform="translate(6688.27 1781.73) rotate(90) scale(3.47 -3.47)" gradientUnits="userSpaceOnUse">
      <stop offset="0" stop-color="#f1f1f2"/>
      <stop offset="1" stop-color="#e6e7e8"/>
      <stop offset="1" stop-color="#e6e7e8"/>
    </linearGradient>
    <clipPath id="clippath-4">
      <path class="cls-1" d="M886.29,32.85c41.64-3.02,64.66,77.08-52.67,156.77-1.59,1.08-.29,3.53,1.49,2.82,40.65-16.06,70.79-33.54,92.46-51.19,1.78-3.46,3.54-7.08,5.3-10.86,25.16-54.11-6.84-97.79-41.96-97.79-1.54,0-3.08.09-4.62.26"/>
    </clipPath>
    <linearGradient id="linear-gradient-5" x1="-1470.68" y1="-1605.26" x2="-1460.04" y2="-1605.26" gradientTransform="translate(-8075.64 -8101.13) rotate(-90) scale(5.59 -5.59)" gradientUnits="userSpaceOnUse">
      <stop offset="0" stop-color="#f1f1f2"/>
      <stop offset="1" stop-color="#929497"/>
      <stop offset="1" stop-color="#929497"/>
    </linearGradient>
    <clipPath id="clippath-5">
      <path class="cls-1" d="M852.54,50.32c-.03-.05-.07-.1-.1-.16.02.06.06.11.1.16M852.54,50.32c.55.66,1.63.87,2.36.07,1.66-1.82,3.35-3.49,5.05-5.01,17.78-18.27,35.92-28.38,57.79-21.46,23.8,7.53,47.81,34.74,49.06,70.64,11.48-23.72,10-45.61,1.13-62.36-14.42-18.56-31.26-25.61-47.62-25.61-30.03,0-58.5,23.75-67.77,43.73"/>
    </clipPath>
    <linearGradient id="linear-gradient-6" x1="-1334.48" y1="-1309.84" x2="-1323.84" y2="-1309.84" gradientTransform="translate(-13503.67 -14572.06) rotate(-90) scale(11.01 -11.01)" gradientUnits="userSpaceOnUse">
      <stop offset="0" stop-color="#f1f1f2"/>
      <stop offset=".28" stop-color="#ededee"/>
      <stop offset=".5" stop-color="#e3e4e5"/>
      <stop offset=".71" stop-color="#d2d4d5"/>
      <stop offset=".9" stop-color="#bbbdbf"/>
      <stop offset=".9" stop-color="#bbbdbf"/>
      <stop offset="1" stop-color="#bbbdbf"/>
    </linearGradient>
    <clipPath id="clippath-6">
      <path class="cls-1" d="M927.54,141.28s.02-.02.03-.03c-.01.01-.02.02-.03.03M859.94,45.38c8.88-7.99,17.98-11.93,26.35-12.53,36.83-4.06,72.85,41.06,46.58,97.54-1.76,3.78-3.52,7.4-5.3,10.86,19.31-15.71,31.9-31.57,39.23-46.69-1.26-35.89-25.26-63.11-49.06-70.64-4.7-1.49-9.24-2.18-13.64-2.18-16.02-.01-30.2,9.3-44.15,23.64"/>
    </clipPath>
    <linearGradient id="linear-gradient-7" x1="-1505.57" y1="-1286.71" x2="-1494.93" y2="-1286.71" gradientTransform="translate(-7138.56 -9333.59) rotate(-90) scale(6.26 -6.26)" gradientUnits="userSpaceOnUse">
      <stop offset="0" stop-color="#f1f1f2"/>
      <stop offset="0" stop-color="#f1f1f2"/>
      <stop offset=".11" stop-color="#e2e2e4"/>
      <stop offset=".4" stop-color="#c1c2c5"/>
      <stop offset=".64" stop-color="#adafb1"/>
      <stop offset=".8" stop-color="#a6a8ab"/>
      <stop offset="1" stop-color="#a6a8ab"/>
    </linearGradient>
    <clipPath id="clippath-7">
      <path class="cls-1" d="M852.34,48.74c-.27.61-.13,1.16.19,1.58,14.3-30.87,74.49-70.75,115.41-18.1C957.55,12.56,936.93.01,915.11.01c-23.12,0-47.61,14.09-62.76,48.73"/>
    </clipPath>
    <linearGradient id="linear-gradient-8" x1="-1114.25" y1="-1638.47" x2="-1103.61" y2="-1638.47" gradientTransform="translate(10027.68 -13462.93) scale(8.23 -8.23)" gradientUnits="userSpaceOnUse">
      <stop offset="0" stop-color="#f1f1f2"/>
      <stop offset=".5" stop-color="#f1f1f2"/>
      <stop offset=".65" stop-color="#ededee"/>
      <stop offset=".78" stop-color="#e3e4e5"/>
      <stop offset=".89" stop-color="#d2d4d5"/>
      <stop offset="1" stop-color="#bbbdbf"/>
      <stop offset="1" stop-color="#bbbdbf"/>
    </linearGradient>
  </defs>
  <g>
    <path class="cls-17" d="M432.86,285.99v6.51h-2.09c-4.64,0-7.88-1.25-9.72-3.74-1.85-2.5-2.77-6.2-2.77-11.11v-29.09l5.85-.49v28.54c0,3.44.63,5.86,1.91,7.27,1.27,1.41,3.3,2.12,6.09,2.12h.74Z"/>
    <path class="cls-17" d="M432.86,292.49c-.49,0-.89-.32-1.2-.95-.31-.63-.46-1.4-.46-2.3s.15-1.67.46-2.3c.31-.63.71-.95,1.2-.95h.99c3.98,0,6.59-.57,7.84-1.72,1.25-1.15,1.88-2.86,1.88-5.16v-8.16l5.54-.43v8.04c0,2.37-.23,4.32-.68,5.83,2.26,1.06,5.33,1.6,9.23,1.6h.43v6.51h-1.23c-4.84,0-8.64-1.04-11.39-3.13-2.34,2.09-6.07,3.13-11.2,3.13h-1.42ZM438.64,258.37l4.55,3.99-3.81,4.23-4.49-3.81,3.75-4.42Z"/>
    <path class="cls-17" d="M459.44,298.51l4.25,3.74-3.57,3.93-4.18-3.56,3.51-4.11ZM458.09,292.49c-.49,0-.89-.32-1.2-.95-.31-.63-.46-1.4-.46-2.3s.15-1.67.46-2.3c.31-.63.71-.95,1.2-.95h.99c3.98,0,6.59-.57,7.84-1.72,1.25-1.15,1.88-2.86,1.88-5.16v-8.16l5.54-.43v8.04c0,2.37-.23,4.32-.68,5.83,2.26,1.06,5.33,1.6,9.23,1.6h.43v6.51h-1.23c-4.84,0-8.64-1.04-11.39-3.13-2.34,2.09-6.07,3.13-11.2,3.13h-1.42ZM467.94,298.32l4.25,3.74-3.57,3.93-4.18-3.56,3.51-4.11Z"/>
    <path class="cls-17" d="M483.32,292.49c-.49,0-.89-.32-1.2-.95-.31-.63-.46-1.4-.46-2.3s.15-1.67.46-2.3c.31-.63.71-.95,1.2-.95h.49c2.87,0,5.48-.31,7.82-.92.29-3.35.43-7.24.43-11.66,0-5.4-.08-13.69-.25-24.86l5.85-.49c.12,10.88.18,18.84.18,23.87s-.08,8.76-.25,11.17c-.16,2.41-.55,4.66-1.17,6.75-1.35.74-3.23,1.36-5.63,1.87-2.4.51-4.75.77-7.05.77h-.43Z"/>
    <path class="cls-17" d="M521.29,285.99v6.51h-2.09c-4.64,0-7.88-1.25-9.72-3.74-1.85-2.5-2.77-6.2-2.77-11.11v-29.09l5.85-.49v28.54c0,3.44.63,5.86,1.91,7.27,1.27,1.41,3.3,2.12,6.09,2.12h.74Z"/>
    <path class="cls-17" d="M551.26,294.89c-2.38,0-5.07-.41-8.06-1.23-3-.82-5.74-1.94-8.25-3.38-3.45,1.47-7.57,2.21-12.37,2.21h-1.29c-.49,0-.89-.32-1.2-.95-.31-.63-.46-1.4-.46-2.3s.15-1.67.46-2.3c.31-.63.71-.95,1.2-.95h.86c2.54,0,4.9-.18,7.08-.55-1.68-2.05-2.52-4.32-2.52-6.81,0-5.24,2.79-10.45,8.37-15.65,6.73,1.72,12.3,4.67,16.71,8.87,4.41,4.19,6.61,8.81,6.61,13.84,0,6.14-2.38,9.21-7.14,9.21ZM531.38,277.52c0,2.41,1.44,4.58,4.31,6.51,2.13-.98,3.73-2.12,4.8-3.41,1.07-1.29,1.6-2.51,1.6-3.65,0-3.64-2.18-6.2-6.52-7.67-2.79,2.78-4.18,5.52-4.18,8.22ZM550.83,289.24c.99,0,1.67-.2,2.06-.61.39-.41.59-1.02.59-1.84,0-4.46-2.4-8.69-7.2-12.7.13.74.19,1.49.19,2.27,0,3.81-1.95,7.24-5.85,10.31,3.86,1.72,7.26,2.58,10.22,2.58Z"/>
    <path class="cls-17" d="M577.29,249.23c-4.19.74-8.55,1.96-13.11,3.68l-.98-2.95c1.97-.82,3.34-1.35,4.12-1.6-1.76-1.14-2.65-2.8-2.65-4.97,0-1.84.58-3.26,1.72-4.27,1.15-1,2.59-1.5,4.31-1.5s3.28.39,4.8,1.17l-1.11,2.82c-1.23-.45-2.38-.67-3.45-.67-.94,0-1.71.24-2.31.71-.59.47-.89,1.12-.89,1.93,0,.9.35,1.68,1.05,2.33.7.65,1.66.98,2.89.98.33,0,1.99-.27,4.98-.8l.62,3.13ZM581.16,285.99v6.51h-1.35c-4.92,0-8.36-1.24-10.31-3.71-1.95-2.48-2.92-6.19-2.92-11.14v-22.59l5.78-.55v22.09c0,3.44.63,5.86,1.91,7.27,1.27,1.41,3.32,2.12,6.15,2.12h.74Z"/>
    <path class="cls-17" d="M581.16,292.49c-.49,0-.89-.32-1.2-.95-.31-.63-.46-1.4-.46-2.3s.15-1.67.46-2.3c.31-.63.71-.95,1.2-.95h1.29c7.18,0,13.19-.74,18.03-2.21-.58-3.44-2.35-6.6-5.32-9.48-2.97-2.88-6.84-5.12-11.6-6.72v-7.43c7.51-5.69,16.19-9.86,26.03-12.52v6.14c-7.63,2.05-14.54,5.24-20.74,9.57,5.58,2.25,9.82,5.2,12.71,8.84,2.89,3.64,4.34,7.77,4.34,12.4,0,1.43-.1,2.72-.31,3.87-5.05,2.7-12.68,4.05-22.89,4.05h-1.54Z"/>
    <path class="cls-17" d="M634.15,306.42l-5.48.43c-.41-8.59-.62-14.01-.62-16.26,0-2.05.49-3.74,1.48-5.09.99-1.35,2.44-2.11,4.37-2.27.98-5.11,2.72-9.09,5.2-11.94,2.48-2.84,5.57-4.27,9.26-4.27,3.16,0,5.63,1.1,7.41,3.28,1.78,2.19,3.11,5.43,3.97,9.73.49,2.37,1.18,3.96,2.06,4.76.88.8,2.35,1.2,4.4,1.2h1.42v6.51h-1.66c-4.31,0-7.22-1-8.74-3.01-2.83,1.06-6.11,1.6-9.85,1.6-2.05,0-3.99-.15-5.81-.46-1.83-.31-3.24-.6-4.25-.89-1.01-.29-1.55-.43-1.63-.43-1.44,0-2.16.78-2.16,2.33,0,1.27.21,6.2.62,14.79ZM648.24,285.19c2.26,0,4.62-.31,7.08-.92,0-.04-.01-.11-.03-.21-.02-.1-.03-.17-.03-.21-.53-3.68-1.37-6.42-2.49-8.22-1.13-1.8-2.78-2.7-4.95-2.7-4.02,0-7,3.68-8.92,11.05,3.57.82,6.69,1.23,9.35,1.23Z"/>
    <path class="cls-17" d="M667.62,292.49c-.49,0-.89-.32-1.2-.95-.31-.63-.46-1.4-.46-2.3s.15-1.67.46-2.3c.31-.63.71-.95,1.2-.95h1.29c7.18,0,13.19-.74,18.03-2.21-.58-3.44-2.35-6.6-5.32-9.48-2.97-2.88-6.84-5.12-11.6-6.72v-7.43c7.51-5.69,16.19-9.86,26.03-12.52v6.14c-7.63,2.05-14.54,5.24-20.74,9.57,5.58,2.25,9.82,5.2,12.71,8.84,2.89,3.64,4.34,7.77,4.34,12.4,0,1.43-.1,2.72-.31,3.87-5.05,2.7-12.68,4.05-22.89,4.05h-1.54Z"/>
    <path class="cls-17" d="M715.81,285.99v6.51h-2.09c-4.64,0-7.88-1.25-9.72-3.74-1.85-2.5-2.77-6.2-2.77-11.11v-29.09l5.85-.49v28.54c0,3.44.63,5.86,1.91,7.27,1.27,1.41,3.3,2.12,6.09,2.12h.74Z"/>
    <path class="cls-17" d="M715.81,292.49c-.49,0-.89-.32-1.2-.95-.31-.63-.46-1.4-.46-2.3s.15-1.67.46-2.3c.31-.63.71-.95,1.2-.95h1.17c3.04,0,5.64-.1,7.81-.31-3.2-2.45-4.8-5.67-4.8-9.64,0-3.72,1.1-6.67,3.29-8.84,2.19-2.17,5.02-3.25,8.46-3.25s6.83.86,10.52,2.58l-1.66,4.97c-2.91-1.15-5.52-1.72-7.81-1.72-2.05,0-3.76.6-5.14,1.81-1.38,1.21-2.06,2.81-2.06,4.82,0,2.33.79,4.29,2.37,5.86,1.58,1.58,3.19,2.36,4.83,2.36s5.66-1,12.31-3.01l1.35,5.52c-5.58,1.96-10.6,3.34-15.05,4.14-4.45.8-9.38,1.2-14.8,1.2h-.8Z"/>
    <path class="cls-17" d="M746.33,305.81c-1.6,0-3.3-.18-5.11-.55l.61-5.46c.99.2,2.09.31,3.32.31,2.79,0,5.13-.71,7.02-2.12,1.89-1.41,3.21-3.14,3.97-5.19.76-2.05,1.14-4.3,1.14-6.75,0-2.7-.84-7.3-2.52-13.81l5.35-1.6c1.39,5.48,2.38,8.86,2.95,10.13,1.19,3.48,3.96,5.22,8.31,5.22h1.6v6.51h-2.21c-3.78,0-6.63-1.06-8.55-3.19-.49,5.11-2.11,9.14-4.86,12.09-2.75,2.95-6.42,4.42-11.01,4.42Z"/>
    <path class="cls-17" d="M772.97,292.49c-.49,0-.89-.32-1.2-.95-.31-.63-.46-1.4-.46-2.3s.15-1.67.46-2.3c.31-.63.71-.95,1.2-.95h.31c3.94,0,7.16-.51,9.66-1.53.04-.33.06-.8.06-1.41,0-4.46-.58-8.86-1.72-13.2l5.42-1.29c.98,4.01,1.48,8.02,1.48,12.03,0,3.4-.35,6.26-1.05,8.59-3.73,2.21-8.37,3.31-13.91,3.31h-.25ZM777.96,257.51l4.55,3.99-3.82,4.23-4.49-3.81,3.75-4.42Z"/>
  </g>
  <g>
    <path class="cls-17" d="M15.45,219.63c-1.11,0-2.05.4-2.8,1.19-.75.8-1.13,1.75-1.13,2.86s.38,2.12,1.13,2.89c.76.78,1.69,1.16,2.8,1.16s2.11-.4,2.86-1.19c.76-.8,1.13-1.75,1.13-2.86s-.38-2.12-1.13-2.89c-.75-.78-1.71-1.16-2.86-1.16h0Z"/>
    <path class="cls-17" d="M25.35,219.63c-1.11,0-2.05.4-2.8,1.19-.76.8-1.13,1.75-1.13,2.86s.38,2.12,1.13,2.89c.75.78,1.69,1.16,2.8,1.16s2.05-.4,2.8-1.19c.75-.8,1.13-1.75,1.13-2.86s-.38-2.12-1.13-2.89c-.76-.78-1.69-1.16-2.8-1.16h0Z"/>
    <path class="cls-17" d="M65.02,208.54h-12.47v-9.43c0-2.03-.23-3.86-.69-5.49-.46-1.63-1.21-3.01-2.26-4.15-1.06-1.13-2.47-2.01-4.24-2.62-1.77-.62-3.97-.92-6.59-.92-1.63,0-3.16.06-4.6.18-1.43.12-2.7.26-3.81.42-1.31.16-2.5.34-3.58.53v21.48h-4.07c-2.79,0-5.14-.25-7.03-.75-1.9-.5-3.42-1.25-4.58-2.27-1.16-1.01-1.98-2.3-2.48-3.85-.5-1.55-.75-3.38-.75-5.49,0-1.59.18-3.28.54-5.07.36-1.79.85-3.38,1.49-4.77l-8.36,1.37c-.43,1.23-.8,2.7-1.1,4.39-.3,1.69-.44,3.35-.44,4.98,0,2.74.38,5.2,1.13,7.37.76,2.17,2,4.02,3.73,5.55,1.73,1.53,3.99,2.7,6.77,3.52,2.79.82,6.2,1.22,10.26,1.22h12.47v-22.25c.4-.04.81-.1,1.25-.18.36-.04.77-.08,1.22-.12s.94-.06,1.46-.06c2.47,0,4.19.59,5.16,1.76.97,1.17,1.46,3.19,1.46,6.05v14.79h27.97v-28.03h-7.87v21.83Z"/>
    <path class="cls-17" d="M68.95,173.46c-1.15,0-2.13.4-2.92,1.19-.8.8-1.19,1.77-1.19,2.92s.4,2.13,1.19,2.92c.8.8,1.77,1.2,2.92,1.2s2.12-.4,2.9-1.2c.77-.8,1.16-1.77,1.16-2.92s-.39-2.13-1.16-2.92c-.78-.79-1.74-1.19-2.9-1.19h0Z"/>
    <path class="cls-17" d="M148.05,172.7v35.83h-11.51v-8.88c0-4.17-1.1-7.51-3.27-10-2.17-2.46-5.56-3.71-10.22-3.71-2.59,0-4.85.39-6.81,1.17-1.95.81-3.56,1.88-4.85,3.24-1.29,1.34-2.27,2.88-2.9,4.61s-.95,3.56-.95,5.46c0,1.54-.15,2.85-.46,3.9-.34,1.05-.78,1.88-1.39,2.51-.59.61-1.32,1.05-2.17,1.29-.85.27-1.83.39-2.95.39h-10.32v-35.83h-7.88v42.05h20.46v-.05c2.12-.12,3.81-.54,5.05-1.24,1.49-.85,2.51-1.98,3.07-3.37.51.68,1.1,1.29,1.76,1.85s1.49,1.05,2.49,1.46c1.02.41,2.27.73,3.71.98,1.44.24,3.24.37,5.39.37h31.61v-42.05h-7.85ZM128.83,208.53h-4.51c-3.07,0-5.34-.68-6.76-2.05-1.44-1.37-2.15-3.46-2.15-6.29,0-2.34.61-4.27,1.83-5.78,1.24-1.51,2.98-2.27,5.24-2.27,2.02,0,3.59.66,4.68,2,1.1,1.32,1.66,3.49,1.66,6.46v7.93Z"/>
    <polygon class="cls-17" points="184.9 208.54 166.47 208.54 166.47 214.74 192.78 214.74 192.78 173.7 184.9 173.7 184.9 208.54"/>
    <polygon class="cls-17" points="180.55 204.06 171.9 173.64 164.09 174.71 172.56 204.06 180.55 204.06"/>
    <path class="cls-17" d="M176.37,166.25h-3.4c-1.55,0-2.63-.21-3.22-.63-.6-.42-.89-.96-.89-1.64,0-.6.24-1.08.71-1.46s1.19-.57,2.15-.57c.67,0,1.29.04,1.85.12.56.08.91.14,1.07.18l.71-4.47c-.2-.08-.64-.15-1.31-.21-.68-.06-1.41-.09-2.2-.09-1.55,0-2.88.19-3.97.57s-1.99.88-2.69,1.49c-.7.62-1.2,1.33-1.52,2.15-.32.81-.48,1.64-.48,2.48,0,.44.1.89.3,1.34.2.46.48.79.83.98-.4-.08-.9-.14-1.49-.18-.6-.04-1.21-.06-1.85-.06v4.41h15.39v-4.41Z"/>
    <rect class="cls-17" x="202.86" y="172.69" width="7.87" height="42.05"/>
    <path class="cls-17" d="M247.24,219.63c-1.11,0-2.05.4-2.81,1.19-.75.8-1.13,1.75-1.13,2.86s.38,2.12,1.13,2.89c.76.78,1.69,1.16,2.81,1.16s2.1-.4,2.86-1.19c.75-.8,1.13-1.75,1.13-2.86s-.38-2.12-1.13-2.89c-.76-.78-1.71-1.16-2.86-1.16h0Z"/>
    <path class="cls-17" d="M281.38,189.48c-1.05-1.13-2.47-2.01-4.23-2.62-1.77-.62-3.97-.92-6.59-.92-1.63,0-3.16.06-4.59.18-1.43.12-2.71.26-3.82.42-1.31.16-2.5.34-3.58.53v21.48h-4.07c-2.79,0-5.13-.25-7.03-.75-1.9-.5-3.42-1.25-4.58-2.27-1.16-1.01-1.99-2.3-2.49-3.85-.5-1.55-.75-3.38-.75-5.49,0-1.59.18-3.28.54-5.07.36-1.79.86-3.38,1.49-4.77l-8.36,1.37c-.44,1.23-.8,2.7-1.1,4.39-.3,1.69-.44,3.35-.44,4.98,0,2.74.38,5.2,1.13,7.37.75,2.17,2,4.02,3.73,5.55,1.73,1.53,3.99,2.7,6.77,3.52,2.78.82,6.2,1.22,10.26,1.22h12.47v-22.25c.4-.04.81-.1,1.25-.18.36-.04.77-.08,1.22-.12.46-.04.95-.06,1.46-.06,2.47,0,4.19.59,5.16,1.76.98,1.17,1.46,3.19,1.46,6.05v7.63h7.64v-8.47c0-2.03-.23-3.86-.69-5.49-.46-1.63-1.22-3.01-2.27-4.15h0Z"/>
    <path class="cls-17" d="M257.14,219.63c-1.11,0-2.05.4-2.8,1.19-.76.8-1.13,1.75-1.13,2.86s.38,2.12,1.13,2.89c.75.78,1.69,1.16,2.8,1.16s2.05-.4,2.8-1.19,1.13-1.75,1.13-2.86-.38-2.12-1.13-2.89c-.76-.78-1.69-1.16-2.8-1.16h0Z"/>
    <path class="cls-17" d="M311.53,193.77c-1.67-2.05-3.75-3.77-6.23-5.16-2.48-1.39-5.34-2.51-8.56-3.34l-1.91,6.56c4.69,1.19,8.16,3.16,10.41,5.9,2.25,2.74,3.47,6.34,3.67,10.8h-17.71v6.2h25.41v-3.94c0-3.7-.43-6.95-1.28-9.75-.86-2.8-2.12-5.23-3.79-7.28h0Z"/>
    <path class="cls-17" d="M455.1,172.7v35.83h-12.34c.07-1.29.15-2.61.22-3.93.05-1.32.07-2.56.07-3.76,0-2.98-.17-5.88-.54-8.71-.34-2.83-.8-5.44-1.37-7.83l-7.71,1.1c.54,2.24.95,4.73,1.27,7.44.32,2.71.46,5.56.46,8.54,0,.9-.02,2.02-.07,3.37-.07,1.34-.17,2.59-.34,3.78h-1.54c-1.39,0-2.54-.05-3.44-.2s-1.61-.41-2.15-.83c-.54-.44-.93-1-1.12-1.73-.22-.73-.34-1.71-.34-2.9v-14.98h-7.56v13.49c0,2.9-.41,4.9-1.24,6-.8,1.1-2,1.63-3.54,1.63-.93,0-1.63-.15-2.17-.44-.54-.32-.95-.76-1.24-1.39-.27-.61-.46-1.39-.56-2.37-.1-.98-.15-2.15-.15-3.49v-11.05h-7.88v10.85c0,1.46-.1,2.68-.29,3.63-.19.95-.51,1.71-.95,2.27-.44.56-1,.95-1.68,1.17-.66.22-1.49.32-2.44.32h-5.95c-1.27,0-2.46-.12-3.54-.41-1.07-.27-2.1-.66-3.1-1.12,2.02-1.68,3.56-3.49,4.56-5.46,1.02-1.98,1.54-3.98,1.54-6,0-1.32-.24-2.54-.73-3.73-.46-1.17-1.22-2.19-2.22-3.1-1.02-.88-2.32-1.61-3.93-2.15-1.59-.54-3.49-.81-5.71-.81-1.49,0-3,.2-4.54.56-1.56.39-3.07.88-4.56,1.51-1.49.61-2.93,1.32-4.29,2.1-1.39.8-2.66,1.61-3.85,2.46l-.66,5.61c1.32.34,2.51.83,3.61,1.44,1.1.63,2.15,1.32,3.17,2.1,1,.78,1.98,1.61,2.9,2.51.95.88,1.88,1.78,2.85,2.66-1.83.59-3.9,1.05-6.2,1.37-2.27.32-4.85.46-7.71.46h-7.1v-20.51c-1.07-.37-2.27-.68-3.59-1-1.15-.29-2.49-.54-3.98-.76-1.49-.22-3.12-.32-4.9-.32-2.76,0-5.12.41-7.1,1.24-2,.83-3.63,1.93-4.93,3.32-1.29,1.37-2.24,2.95-2.88,4.76-.61,1.8-.9,3.71-.9,5.63,0,2.12.27,4.02.85,5.73.59,1.71,1.51,3.17,2.78,4.37,1.27,1.2,2.93,2.1,4.95,2.76,2.02.66,4.49,1,7.39,1h4.66v.88c0,2.83-.95,4.85-2.83,6.1-1.9,1.22-4.39,1.85-7.49,1.85-1.17,0-2.29-.05-3.41-.15-1.1-.12-2.1-.22-2.98-.34-1.02-.15-2-.34-2.93-.54l-.46,6.44c.85.17,1.83.29,2.85.42.88.1,1.83.17,2.9.24,1.05.07,2.15.12,3.29.12,3.34,0,6.2-.39,8.56-1.17,2.37-.76,4.29-1.83,5.78-3.2,1.51-1.34,2.59-2.93,3.29-4.73.68-1.8,1.05-3.76,1.05-5.8v-.12h6.61c4.02,0,7.66-.34,10.95-1,3.27-.66,6.19-1.56,8.73-2.71,1.63,1.07,3.44,1.95,5.41,2.66,1.95.68,4.24,1.05,6.88,1.05h6.81c2.17,0,3.9-.37,5.15-1.05,1.27-.71,2.2-1.73,2.78-3.12.49,1.41,1.44,2.56,2.9,3.39,1.44.83,3.12,1.24,5.02,1.24,2.39,0,4.34-.44,5.85-1.34,1.51-.88,2.56-1.98,3.17-3.24.41.83.95,1.51,1.56,2.02.63.51,1.37.93,2.24,1.27.88.32,1.9.51,3.1.63,1.2.12,2.56.2,4.12.2h30.66v-42.05h-7.88ZM343.39,208.53h-3.83c-3.15,0-5.41-.71-6.83-2.1-1.41-1.41-2.12-3.49-2.12-6.24,0-2.34.63-4.27,1.85-5.78,1.24-1.51,2.98-2.27,5.24-2.27.85,0,1.61.05,2.32.17.68.12,1.29.24,1.8.37.61.15,1.12.34,1.56.54v15.32ZM381.2,200.14c-.59,1.15-1.54,2.22-2.81,3.22-.9-.76-1.8-1.54-2.68-2.34-.88-.78-1.76-1.56-2.66-2.29-.88-.73-1.8-1.41-2.73-2.02s-1.93-1.15-2.95-1.59c.51-.34,1.12-.73,1.85-1.17.71-.41,1.46-.81,2.24-1.15.8-.37,1.63-.66,2.49-.9.85-.24,1.68-.37,2.49-.37,1.9,0,3.32.49,4.24,1.46.95.98,1.41,2.17,1.41,3.56,0,1.22-.29,2.42-.9,3.59Z"/>
    <rect class="cls-17" x="473.12" y="172.69" width="7.88" height="42.05"/>
    <path class="cls-17" d="M576.55,180.2c.91,0,1.68-.31,2.3-.92.62-.61.92-1.38.92-2.3s-.31-1.69-.92-2.33c-.62-.63-1.38-.95-2.3-.95s-1.68.32-2.3.95c-.62.64-.92,1.41-.92,2.33s.31,1.68.92,2.3c.62.62,1.38.92,2.3.92h0Z"/>
    <path class="cls-17" d="M621.7,174.12c.88,0,1.6-.3,2.18-.9.58-.6.86-1.31.86-2.15s-.29-1.61-.86-2.21c-.58-.6-1.3-.89-2.18-.89s-1.54.3-2.12.89c-.58.6-.87,1.33-.87,2.21s.29,1.6.87,2.18c.58.58,1.28.87,2.12.87h0Z"/>
    <path class="cls-17" d="M617.35,181.22c.87,0,1.62-.31,2.24-.92.62-.62.92-1.38.92-2.3s-.31-1.67-.92-2.27c-.62-.6-1.36-.9-2.24-.9s-1.67.31-2.27.92c-.6.62-.89,1.36-.89,2.24,0,.92.3,1.68.89,2.3.6.62,1.35.92,2.27.92h0Z"/>
    <path class="cls-17" d="M622.95,177.99c0,.92.31,1.68.92,2.3.62.62,1.38.92,2.3.92s1.61-.31,2.21-.92c.6-.62.9-1.38.9-2.3s-.3-1.67-.9-2.27c-.6-.6-1.33-.9-2.21-.9s-1.68.31-2.3.92c-.62.62-.92,1.36-.92,2.24h0Z"/>
    <path class="cls-17" d="M661.49,181.22c.87,0,1.62-.31,2.24-.92.62-.62.92-1.38.92-2.3s-.31-1.67-.92-2.27c-.62-.6-1.36-.9-2.24-.9s-1.67.31-2.27.92c-.6.62-.89,1.36-.89,2.24,0,.92.3,1.68.89,2.3.6.62,1.35.92,2.27.92h0Z"/>
    <path class="cls-17" d="M652.66,181.22c.91,0,1.67-.31,2.27-.92.6-.62.89-1.38.89-2.3s-.3-1.67-.89-2.27c-.6-.6-1.35-.9-2.27-.9s-1.62.31-2.24.92c-.62.62-.93,1.36-.93,2.24,0,.92.31,1.68.93,2.3.61.62,1.36.92,2.24.92h0Z"/>
    <path class="cls-17" d="M765.86,172.7v37.68h-13.41v-10.98c0-4.24-1.05-7.54-3.17-9.88-2.1-2.32-5.29-3.49-9.59-3.49-2.46,0-4.63.41-6.51,1.2-1.88.81-3.44,1.88-4.68,3.2-1.24,1.34-2.19,2.88-2.8,4.63-.61,1.73-.93,3.59-.93,5.54s-.17,3.63-.54,4.9c-.34,1.27-.85,2.27-1.49,2.98s-1.41,1.22-2.32,1.49c-.93.29-1.9.42-3,.42h-4.51c.12-1.46.22-2.95.29-4.46.07-1.51.12-2.95.12-4.29,0-3.27-.2-6.34-.61-9.22-.39-2.88-.9-5.46-1.54-7.73l-5.32.95c.56,2.2,1.02,4.66,1.41,7.44.37,2.76.56,5.78.56,9.02,0,.56-.02,1.2-.02,1.88-.02.71-.07,1.41-.1,2.15-.05.76-.1,1.49-.15,2.22-.07.73-.12,1.41-.22,2.05h-1.95c-1.63,0-3-.07-4.1-.24-1.1-.15-2-.49-2.68-.98-.71-.49-1.2-1.22-1.49-2.17-.29-.95-.46-2.22-.46-3.83v-15.27h-5.29v13.32c0,1.9-.15,3.46-.46,4.71-.29,1.22-.71,2.22-1.24,2.95-.54.73-1.17,1.24-1.93,1.51-.76.29-1.61.41-2.51.41-1.2,0-2.12-.22-2.8-.66-.68-.41-1.17-1.05-1.49-1.88-.32-.8-.51-1.8-.61-3-.07-1.2-.12-2.56-.12-4.12v-10.85h-5.49v11.93c0,1.56-.1,2.85-.34,3.9-.24,1.07-.61,1.9-1.1,2.54-.51.63-1.15,1.1-1.93,1.34-.76.27-1.68.39-2.76.39h-7.83v-23.68h-5.49v23.68h-14.44c.12-1.46.22-2.95.32-4.46.07-1.51.12-2.95.12-4.29,0-3.27-.22-6.34-.61-9.22-.39-2.88-.9-5.46-1.54-7.73l-5.32.95c.56,2.2,1.02,4.66,1.39,7.44.39,2.76.59,5.78.59,9.02,0,.56-.02,1.2-.05,1.88,0,.71-.05,1.41-.07,2.15-.05.76-.1,1.49-.15,2.22-.07.73-.15,1.41-.22,2.05h-1.98c-1.63,0-2.98-.07-4.07-.24-1.1-.15-2-.49-2.68-.98-.71-.49-1.2-1.22-1.49-2.17-.32-.95-.46-2.22-.46-3.83v-15.27h-5.29v13.32c0,1.9-.15,3.46-.46,4.71-.29,1.22-.71,2.22-1.24,2.95-.54.73-1.2,1.24-1.95,1.51-.73.29-1.59.41-2.49.41-1.2,0-2.12-.22-2.8-.66-.68-.41-1.17-1.05-1.49-1.88-.32-.8-.54-1.8-.61-3-.07-1.2-.12-2.56-.12-4.12v-10.85h-5.49v11.93c0,1.56-.12,2.85-.34,3.9-.24,1.07-.61,1.9-1.12,2.54-.49.63-1.12,1.1-1.9,1.34-.78.27-1.71.39-2.78.39h-5.78c-.56,0-1.12.02-1.73.02-.59.02-1.15.07-1.66.1-.61.05-1.2.07-1.78.07,1.49-1.12,2.66-2.63,3.44-4.59.8-1.93,1.2-3.95,1.2-6.1,0-2.51-.34-4.63-1-6.39-.68-1.76-1.61-3.17-2.8-4.27-1.2-1.1-2.61-1.9-4.22-2.41-1.61-.51-3.37-.78-5.27-.78-2.22,0-4.24.39-6.02,1.15-1.78.76-3.32,1.78-4.56,3.1-1.27,1.32-2.22,2.85-2.88,4.63-.63,1.76-.98,3.66-.98,5.68,0,2.39.34,4.41,1.02,6.1.66,1.66,1.63,2.95,2.9,3.88-.46,0-.93-.02-1.37-.07-.44-.02-.88-.07-1.37-.1-.49,0-.98-.02-1.49-.02h-8.54v-11.27c0-2.02-.22-3.85-.68-5.49-.46-1.63-1.2-3-2.24-4.12-1.02-1.1-2.39-1.95-4.07-2.56-1.71-.59-3.81-.9-6.29-.9-1.44,0-2.81.07-4.1.19-1.29.12-2.44.24-3.49.42-1.2.15-2.29.34-3.34.54v23.2h-5.07c-3.12,0-5.71-.29-7.78-.85-2.07-.59-3.73-1.44-4.98-2.56-1.22-1.15-2.1-2.56-2.59-4.27-.51-1.71-.76-3.71-.76-5.98,0-1.66.22-3.44.63-5.34.41-1.88.95-3.51,1.63-4.9l-5.8,1c-.56,1.15-1.02,2.66-1.39,4.49s-.56,3.63-.56,5.41c0,2.83.39,5.32,1.17,7.49.78,2.17,2,3.98,3.66,5.46,1.68,1.46,3.83,2.56,6.46,3.29,2.66.76,5.88,1.12,9.63,1.12h11.1v-23.88c.51-.07,1.07-.15,1.61-.22.49-.1,1.02-.15,1.59-.2.59-.02,1.2-.05,1.83-.05,3.02,0,5.2.71,6.49,2.15,1.32,1.44,1.98,3.85,1.98,7.27v14.93h48.24c2.27,0,4.02-.42,5.29-1.27,1.24-.83,2.15-1.98,2.71-3.44.44,1.51,1.32,2.73,2.66,3.68,1.34.95,3,1.44,5.05,1.44,1.34,0,2.54-.15,3.54-.44,1.02-.32,1.9-.71,2.63-1.2.73-.51,1.32-1.07,1.78-1.68.46-.61.8-1.24,1.05-1.88.44.95.98,1.73,1.61,2.37.63.61,1.44,1.1,2.39,1.46.95.34,2.1.59,3.46.73,1.34.15,2.95.22,4.83.22h35.07c2.27,0,4.02-.42,5.27-1.27,1.24-.83,2.17-1.98,2.71-3.44.44,1.51,1.32,2.73,2.66,3.68,1.34.95,3.02,1.44,5.05,1.44,1.34,0,2.54-.15,3.54-.44,1.02-.32,1.9-.71,2.63-1.2.73-.51,1.34-1.07,1.78-1.68.46-.61.8-1.24,1.05-1.88.44.95.98,1.73,1.61,2.37.63.61,1.44,1.1,2.39,1.46.95.34,2.1.59,3.46.73,1.34.15,2.95.22,4.83.22l13.9-.07c2.07-.12,3.78-.63,5.05-1.54,1.51-1.07,2.49-2.41,2.93-4,.49.83,1.05,1.59,1.73,2.27.68.68,1.54,1.27,2.61,1.76,1.05.49,2.34.88,3.88,1.17,1.51.27,3.37.42,5.56.42h30.12v-42.05h-5.49ZM584.01,204.77c-.44,1.29-1.05,2.34-1.78,3.17-.76.83-1.66,1.44-2.66,1.85-1.02.39-2.1.59-3.2.59-2.71,0-4.78-.85-6.19-2.59-1.44-1.73-2.17-4.27-2.17-7.61,0-1.71.24-3.17.73-4.41.46-1.22,1.1-2.24,1.88-3.05.78-.78,1.66-1.37,2.68-1.76,1-.37,2.05-.56,3.12-.56,2.76,0,4.81.85,6.17,2.56,1.39,1.71,2.07,4.15,2.07,7.27,0,1.76-.22,3.27-.66,4.54ZM747.08,210.38h-5.93c-3.88,0-6.66-.83-8.34-2.46-1.71-1.66-2.56-4.2-2.56-7.61,0-2.98.81-5.39,2.37-7.2,1.59-1.8,3.76-2.71,6.56-2.71,2.46,0,4.41.76,5.8,2.29,1.39,1.54,2.1,4.1,2.1,7.66v10.02Z"/>
    <rect class="cls-17" x="782.69" y="172.69" width="5.49" height="42.05"/>
  </g>
  <g>
    <path class="cls-18" d="M835.37,134.32c-154.77-29.41-78.93-165.85,7.8-82.07,1.2,1.17-.09,3.15-1.65,2.52-9.41-3.7-17.62-5.35-24.56-5.35-40.83,0-37.89,56.8,19.34,81.85,1.76.77.95,3.41-.94,3.05"/>
    <g class="cls-19">
      <rect class="cls-9" x="751.83" y="28.54" width="105.15" height="90.66" transform="translate(637.05 864.13) rotate(-83.29)"/>
    </g>
    <g class="cls-10">
      <rect class="cls-8" x="719.37" y="14.04" width="135.49" height="131.5" transform="translate(441.68 791.54) rotate(-69.9)"/>
    </g>
    <g class="cls-13">
      <rect class="cls-7" x="719.19" y="10.04" width="130.7" height="134.76" transform="translate(41.37 340.47) rotate(-25.13)"/>
    </g>
    <g class="cls-11">
      <rect class="cls-6" x="740.4" y="41.88" width="100.38" height="112.38" transform="translate(426.35 806.57) rotate(-69.86)"/>
    </g>
    <path class="cls-18" d="M833.63,189.62c145.39-98.75,75.28-198.11,21.27-139.22-1.18,1.28-3.25-.05-2.54-1.65,58.12-132.9,253.54,36.66-17.23,143.69-1.79.71-3.08-1.75-1.49-2.82"/>
    <g class="cls-12">
      <rect class="cls-4" x="825.8" y="25.12" width="138.47" height="172.73" transform="translate(-6 70.79) rotate(-4.51)"/>
    </g>
    <g class="cls-16">
      <rect class="cls-5" x="840.63" y="-25.65" width="149.45" height="152.44" transform="translate(267.54 699.24) rotate(-48.2)"/>
    </g>
    <g class="cls-15">
      <rect class="cls-3" x="833.2" y="1.84" width="160.34" height="159.33" transform="translate(244.26 708.54) rotate(-48.24)"/>
    </g>
    <g class="cls-14">
      <rect class="cls-2" x="843.7" y="-50.67" width="132.62" height="131.24" transform="translate(242.42 633.55) rotate(-43.76)"/>
    </g>
  </g>
</svg>