<?xml version="1.0" encoding="UTF-8"?>
<svg id="Layer_1" data-name="Layer 1" xmlns="http://www.w3.org/2000/svg" xmlns:xlink="http://www.w3.org/1999/xlink" viewBox="0 0 975 316.19">
  <defs>
    <style>
      .cls-1 {
        fill: none;
      }

      .cls-2 {
        fill: url(#linear-gradient-8);
      }

      .cls-3 {
        fill: url(#linear-gradient-7);
      }

      .cls-4 {
        fill: url(#linear-gradient-5);
      }

      .cls-5 {
        fill: url(#linear-gradient-6);
      }

      .cls-6 {
        fill: url(#linear-gradient-9);
      }

      .cls-7 {
        fill: url(#linear-gradient-4);
      }

      .cls-8 {
        fill: url(#linear-gradient-3);
      }

      .cls-9 {
        fill: url(#linear-gradient-2);
      }

      .cls-10 {
        fill: url(#linear-gradient);
      }

      .cls-11 {
        clip-path: url(#clippath-11);
      }

      .cls-12 {
        clip-path: url(#clippath-10);
      }

      .cls-13 {
        clip-path: url(#clippath-1);
      }

      .cls-14 {
        clip-path: url(#clippath-3);
      }

      .cls-15 {
        clip-path: url(#clippath-4);
      }

      .cls-16 {
        clip-path: url(#clippath-2);
      }

      .cls-17 {
        clip-path: url(#clippath-7);
      }

      .cls-18 {
        clip-path: url(#clippath-6);
      }

      .cls-19 {
        clip-path: url(#clippath-9);
      }

      .cls-20 {
        clip-path: url(#clippath-8);
      }

      .cls-21 {
        clip-path: url(#clippath-5);
      }

      .cls-22 {
        fill: #fff;
      }

      .cls-23 {
        fill: #f1f1f2;
      }

      .cls-24 {
        fill: url(#linear-gradient-10);
      }

      .cls-25 {
        fill: url(#linear-gradient-11);
      }

      .cls-26 {
        fill: url(#linear-gradient-12);
      }

      .cls-27 {
        clip-path: url(#clippath);
      }
    </style>
    <clipPath id="clippath">
      <path class="cls-1" d="M851.7,399.37c-.03-.05-.07-.1-.1-.16.02.06.06.11.1.16M851.7,399.37c.55.66,1.63.87,2.36.07,1.66-1.82,3.35-3.49,5.05-5.01,17.78-18.27,35.92-28.38,57.79-21.46,23.8,7.53,47.81,34.74,49.06,70.64,11.48-23.72,10-45.61,1.13-62.36-14.42-18.56-31.26-25.61-47.62-25.61-30.03,0-58.5,23.75-67.77,43.73"/>
    </clipPath>
    <linearGradient id="linear-gradient" x1="-1335.32" y1="-960.79" x2="-1324.67" y2="-960.79" gradientTransform="translate(-9662.07 -14232.18) rotate(-90) scale(11.01 -11.01)" gradientUnits="userSpaceOnUse">
      <stop offset="0" stop-color="#f1f1f2"/>
      <stop offset=".28" stop-color="#ededee"/>
      <stop offset=".5" stop-color="#e3e4e5"/>
      <stop offset=".71" stop-color="#d2d4d5"/>
      <stop offset=".9" stop-color="#bbbdbf"/>
      <stop offset=".9" stop-color="#bbbdbf"/>
      <stop offset="1" stop-color="#bbbdbf"/>
    </linearGradient>
    <clipPath id="clippath-1">
      <path class="cls-1" d="M851.51,397.79c-.27.61-.13,1.16.19,1.58,14.3-30.87,74.49-70.75,115.41-18.1-10.4-19.66-31.02-32.21-52.84-32.21-23.12,0-47.61,14.09-62.76,48.73"/>
    </clipPath>
    <linearGradient id="linear-gradient-2" x1="-1115.09" y1="-1289.42" x2="-1104.44" y2="-1289.42" gradientTransform="translate(10033.71 -10242.62) scale(8.23 -8.23)" gradientUnits="userSpaceOnUse">
      <stop offset="0" stop-color="#f1f1f2"/>
      <stop offset=".5" stop-color="#f1f1f2"/>
      <stop offset=".65" stop-color="#ededee"/>
      <stop offset=".78" stop-color="#e3e4e5"/>
      <stop offset=".89" stop-color="#d2d4d5"/>
      <stop offset="1" stop-color="#bbbdbf"/>
      <stop offset="1" stop-color="#bbbdbf"/>
    </linearGradient>
    <clipPath id="clippath-2">
      <path class="cls-1" d="M809.71,129.86c-43.2-29.29-41.49-77.29-2.77-77.29,7.37,0,16.1,1.73,26.11,5.68,1.66.66,3.03-1.44,1.74-2.69-19.12-18.46-37.74-26.86-53.8-28.3-29.92,33.34-16.7,73.66,28.72,102.6"/>
    </clipPath>
    <linearGradient id="linear-gradient-3" x1="-861.92" y1="-673.39" x2="-850.6" y2="-673.39" gradientTransform="translate(-3986.61 3833.77) rotate(-180) scale(5.58 -5.58)" gradientUnits="userSpaceOnUse">
      <stop offset="0" stop-color="#f1f1f2"/>
      <stop offset="1" stop-color="#929497"/>
      <stop offset="1" stop-color="#929497"/>
    </linearGradient>
    <clipPath id="clippath-3">
      <path class="cls-1" d="M731.72,65.58c10.71,40.22,50.45,67.79,96.61,76.39.41-.8.23-1.9-.83-2.38-1.45-.62-2.86-1.28-4.23-1.94-59.77-18.53-101.65-60.53-55.78-109.92-20.32,3.4-34.21,18.96-35.77,37.85"/>
    </clipPath>
    <linearGradient id="linear-gradient-4" x1="-915.18" y1="-1075.29" x2="-903.86" y2="-1075.29" gradientTransform="translate(12030.68 9615.41) rotate(90) scale(10.47 -10.47)" gradientUnits="userSpaceOnUse">
      <stop offset="0" stop-color="#f1f1f2"/>
      <stop offset=".18" stop-color="#f1f1f2"/>
      <stop offset=".7" stop-color="#d0d2d3"/>
      <stop offset="1" stop-color="#d0d2d3"/>
    </linearGradient>
    <clipPath id="clippath-4">
      <path class="cls-1" d="M767.49,27.74c-45.87,49.39-4,91.39,55.77,109.91-5.03-2.43-9.63-5.12-13.81-7.97.08.06.17.12.26.18-45.42-28.94-58.64-69.25-28.72-102.6-1.69-.16-3.36-.24-4.99-.24-2.94,0-5.78.25-8.5.71"/>
    </clipPath>
    <linearGradient id="linear-gradient-5" x1="-847.46" y1="-894.66" x2="-836.14" y2="-894.66" gradientTransform="translate(8048.17 6970.45) rotate(90) scale(8.13 -8.13)" gradientUnits="userSpaceOnUse">
      <stop offset="0" stop-color="#f1f1f2"/>
      <stop offset=".09" stop-color="#f1f1f2"/>
      <stop offset=".23" stop-color="#dcdcde"/>
      <stop offset=".54" stop-color="#b4b5b7"/>
      <stop offset=".79" stop-color="#9b9d9f"/>
      <stop offset=".94" stop-color="#929497"/>
      <stop offset="1" stop-color="#929497"/>
    </linearGradient>
    <clipPath id="clippath-5">
      <path class="cls-1" d="M826.5,142.86c.86.16,1.53-.28,1.83-.88-46.17-8.6-85.9-36.17-96.61-76.39-2.3,28.12,22.77,63.59,94.78,77.27"/>
    </clipPath>
    <linearGradient id="linear-gradient-6" x1="-522.9" y1="-1258.91" x2="-511.58" y2="-1258.91" gradientTransform="translate(5147.24 1919.09) rotate(90) scale(3.47 -3.47)" gradientUnits="userSpaceOnUse">
      <stop offset="0" stop-color="#f1f1f2"/>
      <stop offset="1" stop-color="#e6e7e8"/>
      <stop offset="1" stop-color="#e6e7e8"/>
    </linearGradient>
    <clipPath id="clippath-6">
      <path class="cls-1" d="M880.65,34.94c44.29-3.22,68.76,81.97-56.01,166.72-1.69,1.14-.31,3.76,1.59,3,43.23-17.08,75.28-35.67,98.33-54.44,1.89-3.68,3.77-7.53,5.64-11.55,26.76-57.54-7.28-104-44.63-104-1.64,0-3.27.09-4.91.27"/>
    </clipPath>
    <linearGradient id="linear-gradient-7" x1="-1410.52" y1="-1260.27" x2="-1399.2" y2="-1260.27" gradientTransform="translate(-6152.8 -7757.46) rotate(-90) scale(5.59 -5.59)" gradientUnits="userSpaceOnUse">
      <stop offset="0" stop-color="#f1f1f2"/>
      <stop offset="1" stop-color="#929497"/>
      <stop offset="1" stop-color="#929497"/>
    </linearGradient>
    <clipPath id="clippath-7">
      <path class="cls-1" d="M844.76,53.52c-.03-.06-.08-.1-.1-.17.02.07.07.11.1.17M844.76,53.52c.59.7,1.73.93,2.51.08,1.77-1.94,3.57-3.71,5.37-5.33,18.91-19.43,38.2-30.18,61.46-22.82,25.31,8,50.84,36.95,52.18,75.12,12.2-25.22,10.63-48.51,1.2-66.32-15.34-19.74-33.25-27.24-50.65-27.24-31.94,0-62.22,25.26-72.07,46.51"/>
    </clipPath>
    <linearGradient id="linear-gradient-8" x1="-1314.57" y1="-984.03" x2="-1303.25" y2="-984.03" gradientTransform="translate(-9920.87 -14345.3) rotate(-90) scale(11.01 -11.01)" xlink:href="#linear-gradient"/>
    <clipPath id="clippath-8">
      <path class="cls-1" d="M924.52,150.25s.02-.02.03-.03c-.01.01-.02.02-.03.03M852.63,48.26c9.44-8.5,19.12-12.69,28.02-13.32,39.17-4.31,77.48,43.66,49.54,103.73-1.87,4.02-3.75,7.87-5.64,11.55,20.54-16.71,33.93-33.58,41.72-49.65-1.34-38.17-26.86-67.12-52.18-75.12-5-1.58-9.83-2.32-14.5-2.32-17.04-.01-32.12,9.89-46.96,25.14"/>
    </clipPath>
    <linearGradient id="linear-gradient-9" x1="-1469.5" y1="-978.32" x2="-1458.18" y2="-978.32" gradientTransform="translate(-5212.64 -9102.3) rotate(-90) scale(6.26 -6.26)" gradientUnits="userSpaceOnUse">
      <stop offset="0" stop-color="#f1f1f2"/>
      <stop offset="0" stop-color="#f1f1f2"/>
      <stop offset=".11" stop-color="#e2e2e4"/>
      <stop offset=".4" stop-color="#c1c2c5"/>
      <stop offset=".64" stop-color="#adafb1"/>
      <stop offset=".8" stop-color="#a6a8ab"/>
      <stop offset="1" stop-color="#a6a8ab"/>
    </linearGradient>
    <clipPath id="clippath-9">
      <path class="cls-1" d="M844.55,51.84c-.28.65-.14,1.23.2,1.68,15.2-32.83,79.22-75.24,122.74-19.25C956.43,13.36,934.51.01,911.3.01c-24.59,0-50.64,14.99-66.75,51.83"/>
    </clipPath>
    <linearGradient id="linear-gradient-10" x1="-1086.48" y1="-1258.58" x2="-1075.16" y2="-1258.58" gradientTransform="translate(9792.04 -10337.03) scale(8.23 -8.23)" xlink:href="#linear-gradient-2"/>
    <clipPath id="clippath-10">
      <path class="cls-1" d="M-165.24,53.5h0s-.01-.02-.02-.02c0,0,.01.02.02.02M-165.26,53.48h0s0,0,0,0M-165.26,53.48s0-.01-.01-.02c0,0,0,.01.01.02M-165.27,53.45s-.05-.07-.08-.11c.02.04.05.07.08.11M-165.24,53.5c.58.71,1.72.94,2.5.08,1.77-1.94,3.57-3.71,5.37-5.33,18.9-19.42,38.21-30.18,61.46-22.82,25.32,8.01,50.85,36.96,52.18,75.12,12.21-25.21,10.63-48.51,1.2-66.31C-57.87,14.5-75.77,7-93.17,7c-31.94,0-62.23,25.26-72.06,46.5"/>
    </clipPath>
    <linearGradient id="linear-gradient-11" x1="-1001.58" y1="-977.7" x2="-999.17" y2="-977.7" gradientTransform="translate(-50693.42 -51704.9) rotate(-90) scale(51.75 -51.75)" gradientUnits="userSpaceOnUse">
      <stop offset="0" stop-color="#2fa736"/>
      <stop offset=".29" stop-color="#2ba536"/>
      <stop offset=".53" stop-color="#219f38"/>
      <stop offset=".75" stop-color="#10953b"/>
      <stop offset=".9" stop-color="#008c3e"/>
      <stop offset="1" stop-color="#008c3e"/>
    </linearGradient>
    <clipPath id="clippath-11">
      <path class="cls-1" d="M-85.47,150.25s.02-.02.03-.03c-.01,0-.02.02-.03.03M-85.44,150.22h0M-157.36,48.26c9.44-8.49,19.13-12.69,28.03-13.33,39.17-4.3,77.47,43.68,49.54,103.74-1.87,4.03-3.75,7.88-5.64,11.56,20.53-16.72,33.93-33.58,41.71-49.66-1.34-38.16-26.87-67.11-52.18-75.12-5-1.58-9.82-2.33-14.5-2.33-17.05,0-32.13,9.91-46.96,25.15"/>
    </clipPath>
    <linearGradient id="linear-gradient-12" x1="-1018.66" y1="-963.84" x2="-1016.25" y2="-963.84" gradientTransform="translate(-28454.34 -29872.83) rotate(-90) scale(29.42 -29.42)" gradientUnits="userSpaceOnUse">
      <stop offset="0" stop-color="#2fa736"/>
      <stop offset=".3" stop-color="#178a39"/>
      <stop offset=".6" stop-color="#06763b"/>
      <stop offset=".8" stop-color="#006f3c"/>
      <stop offset="1" stop-color="#006f3c"/>
    </linearGradient>
  </defs>
  <g>
    <g class="cls-27">
      <rect class="cls-10" x="839.8" y="323.41" width="149.45" height="152.44" transform="translate(7.05 815.02) rotate(-48.2)"/>
    </g>
    <g class="cls-13">
      <rect class="cls-9" x="842.87" y="298.38" width="132.62" height="131.24" transform="translate(.78 729.93) rotate(-43.76)"/>
    </g>
  </g>
  <g>
    <g>
      <path class="cls-22" d="M20.14,304.98c-6.46,0-11.43-1.99-14.92-5.98-3.48-3.99-5.22-9.4-5.22-16.25s1.72-12.57,5.16-16.78c3.44-4.22,8.43-6.33,14.98-6.33,3.54,0,7.09.73,10.63,2.19l-1.5,5.64c-3.67-1.34-6.69-2-9.07-2-4.59,0-7.97,1.56-10.16,4.67-2.19,3.11-3.28,7.3-3.28,12.56s1.13,9.27,3.38,12.15c2.25,2.88,5.67,4.32,10.26,4.32,3.13,0,6.27-.79,9.44-2.38l1.31,5.7c-3.25,1.67-6.92,2.5-11.01,2.5Z"/>
      <path class="cls-22" d="M61.47,302.1c-3.38,1.92-7.65,2.88-12.82,2.88-3.96,0-7-.88-9.13-2.63-2.13-1.75-3.19-4.05-3.19-6.89,0-3.13,1.13-5.53,3.38-7.2,2.25-1.67,5.23-2.5,8.94-2.5,2.38,0,4.59.23,6.63.69v-2.63c0-4.51-2.44-6.76-7.32-6.76-3.04,0-5.84.52-8.38,1.57l-1.25-5.07c2.92-1.21,6.34-1.82,10.26-1.82,4.25,0,7.46,1.06,9.63,3.19,2.17,2.13,3.25,5.2,3.25,9.21v17.97ZM49.22,300.22c2.54,0,4.57-.44,6.07-1.31v-8.2c-2-.5-3.96-.75-5.88-.75-4.5,0-6.75,1.75-6.75,5.26s2.19,5.01,6.57,5.01Z"/>
      <path class="cls-22" d="M71.1,274.74c3.59-2,7.96-3.01,13.13-3.01,1.63,0,3.11.15,4.44.44l-.88,5.32c-.88-.29-1.92-.44-3.13-.44-2.79,0-5.21.54-7.25,1.63v25.55h-6.32v-29.5Z"/>
      <path class="cls-22" d="M97.81,266.97c-1.25,0-2.22-.35-2.91-1.06-.69-.71-1.03-1.65-1.03-2.82s.35-2.04,1.06-2.72c.71-.69,1.67-1.03,2.88-1.03s2.16.34,2.85,1.03c.69.69,1.03,1.6,1.03,2.72s-.34,2.11-1.03,2.82c-.69.71-1.64,1.06-2.85,1.06ZM100.99,272.48v31.75h-6.32v-31.75h6.32Z"/>
      <path class="cls-22" d="M117.19,304.23h-6.32v-29.56c4.17-1.96,8.71-2.94,13.63-2.94,4.34,0,7.65,1.05,9.94,3.16,2.29,2.11,3.44,5.08,3.44,8.92v20.42h-6.32v-19.98c0-4.8-2.36-7.2-7.07-7.2-2.71,0-5.15.54-7.32,1.63v25.55Z"/>
      <path class="cls-22" d="M158.78,316.19c-3.88,0-7.36-.61-10.44-1.82l1.31-5.14c2.71,1.04,5.63,1.57,8.75,1.57,2.75,0,4.86-.61,6.32-1.82,1.46-1.21,2.19-2.9,2.19-5.07v-2.63c-2.09,1.09-4.38,1.63-6.88,1.63-4.5,0-8.06-1.31-10.66-3.94-2.61-2.63-3.91-6.3-3.91-11.02,0-4.97,1.46-8.91,4.38-11.84,2.92-2.92,6.82-4.38,11.69-4.38,4.29,0,8.19.84,11.69,2.5v29.12c0,4.09-1.28,7.25-3.85,9.49-2.56,2.23-6.1,3.35-10.6,3.35ZM151.9,287.45c0,3.13.79,5.6,2.38,7.39,1.58,1.8,3.79,2.69,6.63,2.69,2.29,0,4.29-.54,6-1.63v-17.85c-1.84-.67-3.63-1-5.38-1-2.96,0-5.31.93-7.04,2.79-1.73,1.86-2.6,4.39-2.6,7.61Z"/>
      <path class="cls-22" d="M203.74,258.89v35.19c0,1.92.29,3.33.88,4.23.58.9,1.56,1.35,2.94,1.35.71,0,1.31-.06,1.81-.19l.5,5.07c-1.17.29-2.36.44-3.56.44-5.92,0-8.88-3.61-8.88-10.83v-34.88l6.32-.38Z"/>
      <path class="cls-22" d="M219.5,266.97c-1.25,0-2.22-.35-2.91-1.06-.69-.71-1.03-1.65-1.03-2.82s.35-2.04,1.06-2.72c.71-.69,1.67-1.03,2.88-1.03s2.16.34,2.85,1.03c.69.69,1.03,1.6,1.03,2.72s-.34,2.11-1.03,2.82c-.69.71-1.64,1.06-2.85,1.06ZM222.69,272.48v31.75h-6.32v-31.75h6.32Z"/>
      <path class="cls-22" d="M253.02,304.23l-8.46-13.2c-1.79,1.25-3.62,2.44-5.49,3.57v9.64h-6.32v-44.96l6.32-.31v29.43c3.75-2.25,6.6-4.61,8.54-7.08,1.94-2.46,3.2-5.41,3.78-8.83h6.25c-.46,5.43-3.31,10.42-8.57,14.97l10.94,16.78h-7Z"/>
      <path class="cls-22" d="M290.29,302.79c-3.13,1.46-6.71,2.19-10.76,2.19-5.04,0-9.06-1.47-12.04-4.41-2.98-2.94-4.47-7.02-4.47-12.24,0-4.93,1.35-8.92,4.06-11.99,2.71-3.07,6.34-4.6,10.88-4.6,4.04,0,7.24,1.29,9.6,3.88,2.36,2.59,3.53,5.93,3.53,10.02,0,1.21-.08,2.61-.25,4.2h-21.32c.63,6.51,4.15,9.77,10.57,9.77,3.04,0,6.09-.65,9.13-1.94l1.06,5.13ZM277.97,276.93c-2.42,0-4.35.78-5.78,2.35-1.44,1.57-2.3,3.73-2.6,6.48h15.32c.04-.25.06-.58.06-1,0-2.25-.59-4.12-1.78-5.61-1.19-1.48-2.93-2.22-5.22-2.22Z"/>
      <path class="cls-22" d="M314.55,304.23v-26.62h-4.5v-5.13h4.5v-2.57c0-3.59.84-6.41,2.53-8.45,1.69-2.05,4.24-3.07,7.66-3.07,1.58,0,3.46.25,5.63.75l-1.06,5.01c-1.67-.29-2.86-.44-3.57-.44-3.25,0-4.88,2.03-4.88,6.07v2.69h8v5.13h-8v26.62h-6.32Z"/>
      <path class="cls-22" d="M355.89,302.1c-3.38,1.92-7.65,2.88-12.82,2.88-3.96,0-7-.88-9.13-2.63-2.13-1.75-3.19-4.05-3.19-6.89,0-3.13,1.13-5.53,3.38-7.2,2.25-1.67,5.23-2.5,8.94-2.5,2.38,0,4.59.23,6.63.69v-2.63c0-4.51-2.44-6.76-7.32-6.76-3.04,0-5.84.52-8.38,1.57l-1.25-5.07c2.92-1.21,6.34-1.82,10.26-1.82,4.25,0,7.46,1.06,9.63,3.19,2.17,2.13,3.25,5.2,3.25,9.21v17.97ZM343.63,300.22c2.54,0,4.57-.44,6.07-1.31v-8.2c-2-.5-3.96-.75-5.88-.75-4.5,0-6.75,1.75-6.75,5.26s2.19,5.01,6.57,5.01Z"/>
      <path class="cls-22" d="M371.65,278.68v25.55h-6.32v-29.56c4.17-1.96,8.63-2.94,13.38-2.94,3.79,0,6.77.96,8.94,2.88,3.46-1.92,7.02-2.88,10.69-2.88,4.21,0,7.41,1.06,9.6,3.19,2.19,2.13,3.28,5.09,3.28,8.89v20.42h-6.32v-19.98c0-4.8-2.27-7.2-6.82-7.2-2.79,0-5.3.73-7.5,2.19.54,1.59.81,3.49.81,5.7v19.29h-6.19v-19.98c0-4.8-2.25-7.2-6.75-7.2-2.46,0-4.73.54-6.82,1.63Z"/>
      <path class="cls-22" d="M423.99,266.97c-1.25,0-2.22-.35-2.91-1.06-.69-.71-1.03-1.65-1.03-2.82s.35-2.04,1.06-2.72c.71-.69,1.67-1.03,2.88-1.03s2.16.34,2.85,1.03c.69.69,1.03,1.6,1.03,2.72s-.34,2.11-1.03,2.82c-.69.71-1.64,1.06-2.85,1.06ZM427.18,272.48v31.75h-6.32v-31.75h6.32Z"/>
      <path class="cls-22" d="M443.25,258.89v35.19c0,1.92.29,3.33.88,4.23.58.9,1.56,1.35,2.94,1.35.71,0,1.31-.06,1.81-.19l.5,5.07c-1.17.29-2.36.44-3.56.44-5.92,0-8.88-3.61-8.88-10.83v-34.88l6.32-.38Z"/>
      <path class="cls-22" d="M469.33,302.48c-4.29,7.56-9.78,12-16.45,13.34l-1.06-5.45c4.71-.96,8.28-3.44,10.69-7.45-3.42-4.84-6.06-9.65-7.91-14.43-1.86-4.78-3.1-10.11-3.72-16h6.38c.46,5.01,1.41,9.52,2.85,13.53,1.44,4.01,3.35,8.02,5.72,12.02,2.08-4.22,3.7-8.26,4.85-12.12,1.15-3.86,1.95-8.34,2.41-13.43h6.32c-1.08,9.94-4.44,19.94-10.07,30Z"/>
    </g>
    <g>
      <path class="cls-22" d="M.04,232.28l6.07-7.28c4.2,3.47,8.61,5.67,13.95,5.67,4.2,0,6.74-1.67,6.74-4.4v-.13c0-2.6-1.6-3.94-9.41-5.94-9.41-2.4-15.49-5.01-15.49-14.29v-.13c0-8.48,6.81-14.09,16.35-14.09,6.81,0,12.62,2.14,17.36,5.94l-5.34,7.74c-4.14-2.87-8.21-4.6-12.15-4.6s-6.01,1.8-6.01,4.07v.13c0,3.07,2,4.07,10.08,6.14,9.48,2.47,14.82,5.87,14.82,14.02v.13c0,9.28-7.08,14.49-17.15,14.49-7.08,0-14.22-2.47-19.83-7.48M43.76,228.81v-.13c0-7.81,5.94-11.42,14.42-11.42,3.61,0,6.21.6,8.75,1.47v-.6c0-4.2-2.6-6.54-7.68-6.54-3.87,0-6.61.73-9.88,1.94l-2.54-7.74c3.94-1.74,7.81-2.87,13.89-2.87,5.54,0,9.55,1.47,12.08,4.01,2.67,2.67,3.87,6.61,3.87,11.41v20.76h-9.81v-3.87c-2.47,2.74-5.87,4.54-10.81,4.54-6.74,0-12.28-3.87-12.28-10.95M67.06,226.47v-1.8c-1.74-.8-4.01-1.34-6.48-1.34-4.34,0-7.01,1.74-7.01,4.94v.13c0,2.74,2.27,4.34,5.54,4.34,4.74,0,7.94-2.6,7.94-6.27M86.15,226.47v-23.16h10.14v19.96c0,4.8,2.27,7.28,6.14,7.28s6.34-2.47,6.34-7.28v-19.96h10.15v35.78h-10.15v-5.07c-2.34,3-5.34,5.74-10.48,5.74-7.68,0-12.15-5.07-12.15-13.28M127.39,221.26v-.13c0-11.95,7.81-18.49,16.29-18.49,5.41,0,8.74,2.47,11.15,5.34v-17.62h10.15v48.73h-10.15v-5.14c-2.47,3.34-5.87,5.81-11.15,5.81-8.34,0-16.29-6.54-16.29-18.49M154.96,221.26v-.13c0-5.94-3.94-9.88-8.68-9.88s-8.74,3.87-8.74,9.88v.13c0,5.94,4.01,9.88,8.74,9.88s8.68-3.94,8.68-9.88M175.25,190.36h10.68v9.01h-10.68v-9.01ZM175.52,203.31h10.15v35.78h-10.15v-35.78ZM216.23,215.86v-.13c0-13.28,10.35-24.16,24.5-24.16,8.41,0,13.49,2.27,18.36,6.41l-6.47,7.81c-3.61-3.01-6.81-4.74-12.22-4.74-7.47,0-13.41,6.61-13.41,14.55v.13c0,8.54,5.87,14.82,14.15,14.82,3.74,0,7.08-.93,9.68-2.8v-6.68h-10.35v-8.88h20.29v20.29c-4.81,4.07-11.42,7.41-19.96,7.41-14.55,0-24.56-10.21-24.56-24.03M268.82,221.39v-.13c0-10.21,7.28-18.62,17.69-18.62,11.95,0,17.42,9.28,17.42,19.43,0,.8-.07,1.73-.13,2.67h-24.9c1,4.61,4.2,7.01,8.74,7.01,3.41,0,5.87-1.07,8.68-3.67l5.81,5.14c-3.34,4.14-8.14,6.68-14.62,6.68-10.75,0-18.69-7.54-18.69-18.49M294.06,218.39c-.6-4.54-3.27-7.61-7.54-7.61s-6.94,3.01-7.75,7.61h15.29ZM312.47,203.31h10.15v7.21c2.07-4.94,5.4-8.14,11.41-7.88v10.61h-.53c-6.74,0-10.88,4.07-10.88,12.62v13.21h-10.15v-35.78ZM341.37,203.31h10.15v5.07c2.34-3,5.41-5.74,10.55-5.74,4.67,0,8.21,2.07,10.08,5.67,3.14-3.67,6.88-5.67,11.75-5.67,7.54,0,12.08,4.54,12.08,13.15v23.3h-10.15v-19.96c0-4.8-2.14-7.28-5.94-7.28s-6.14,2.47-6.14,7.28v19.96h-10.14v-19.96c0-4.8-2.14-7.28-5.94-7.28s-6.14,2.47-6.14,7.28v19.96h-10.15v-35.78ZM403.65,228.81v-.13c0-7.81,5.94-11.42,14.42-11.42,3.6,0,6.21.6,8.74,1.47v-.6c0-4.2-2.6-6.54-7.68-6.54-3.87,0-6.61.73-9.88,1.94l-2.54-7.74c3.94-1.74,7.81-2.87,13.88-2.87,5.54,0,9.54,1.47,12.08,4.01,2.67,2.67,3.87,6.61,3.87,11.41v20.76h-9.81v-3.87c-2.47,2.74-5.87,4.54-10.81,4.54-6.74,0-12.28-3.87-12.28-10.95M426.94,226.47v-1.8c-1.73-.8-4-1.34-6.47-1.34-4.34,0-7.01,1.74-7.01,4.94v.13c0,2.74,2.27,4.34,5.54,4.34,4.74,0,7.94-2.6,7.94-6.27M446.3,203.31h10.15v5.07c2.34-3,5.34-5.74,10.48-5.74,7.68,0,12.15,5.07,12.15,13.28v23.16h-10.15v-19.96c0-4.8-2.27-7.28-6.14-7.28s-6.34,2.47-6.34,7.28v19.96h-10.15v-35.78ZM511.97,192.36h5.27v20.76h26.97v-20.76h5.27v46.72h-5.27v-21.03h-26.97v21.03h-5.27v-46.72ZM560.7,222v-.13c0-9.75,7.61-18.02,18.02-18.02s17.96,8.14,17.96,17.89v.13c0,9.74-7.68,18.02-18.09,18.02s-17.89-8.14-17.89-17.89M591.4,222v-.13c0-7.41-5.54-13.49-12.81-13.49s-12.62,6.08-12.62,13.35v.13c0,7.41,5.47,13.41,12.75,13.41s12.68-6.01,12.68-13.28M604.08,234.68l2.6-3.67c3.74,2.81,7.88,4.41,11.95,4.41s7.14-2.14,7.14-5.47v-.13c0-3.47-4.07-4.81-8.61-6.08-5.41-1.53-11.42-3.4-11.42-9.74v-.13c0-5.94,4.94-9.88,11.75-9.88,4.2,0,8.88,1.47,12.42,3.81l-2.34,3.87c-3.21-2.07-6.88-3.34-10.21-3.34-4.07,0-6.68,2.14-6.68,5.01v.13c0,3.27,4.27,4.54,8.88,5.94,5.34,1.6,11.08,3.67,11.08,9.88v.13c0,6.54-5.41,10.35-12.28,10.35-4.94,0-10.42-1.94-14.29-5.07M641.19,204.58h5.14v6.94c2.8-4.14,6.88-7.68,13.22-7.68,8.28,0,16.49,6.54,16.49,17.89v.13c0,11.28-8.14,17.96-16.49,17.96-6.41,0-10.55-3.47-13.22-7.34v17.29h-5.14v-45.19ZM670.76,221.93v-.13c0-8.14-5.61-13.35-12.15-13.35s-12.48,5.41-12.48,13.28v.13c0,8.01,6.07,13.35,12.48,13.35s12.15-4.94,12.15-13.28M686.64,191.36h5.87v5.67h-5.87v-5.67ZM686.98,204.58h5.14v34.51h-5.14v-34.51ZM706.87,229.94v-20.83h-4.81v-4.54h4.81v-10.41h5.14v10.41h10.95v4.54h-10.95v20.16c0,4.2,2.34,5.74,5.81,5.74,1.73,0,3.2-.33,5-1.2v4.4c-1.8.93-3.74,1.47-6.21,1.47-5.54,0-9.75-2.74-9.75-9.75M730.43,229.07v-.13c0-7.41,6.01-11.28,14.75-11.28,4.41,0,7.48.6,10.55,1.47v-1.07c0-6.14-3.74-9.34-10.21-9.34-4.07,0-7.28,1-10.48,2.47l-1.54-4.21c3.81-1.73,7.48-2.94,12.55-2.94s8.68,1.33,11.15,3.81c2.4,2.4,3.61,5.74,3.61,10.15v21.09h-5.07v-5.14c-2.4,3.07-6.34,5.88-12.42,5.88-6.47,0-12.88-3.67-12.88-10.75M755.79,226.4v-3.2c-2.54-.73-5.87-1.47-10.08-1.47-6.41,0-10.08,2.8-10.08,6.94v.13c0,4.34,4,6.88,8.68,6.88,6.34,0,11.48-3.81,11.48-9.28M773.14,190.36h5.14v48.73h-5.14v-48.73Z"/>
      <g>
        <path class="cls-23" d="M826.5,142.86c-164.59-31.28-83.94-176.38,8.3-87.28,1.28,1.25-.09,3.35-1.75,2.68-10.01-3.94-18.74-5.69-26.12-5.69-43.43,0-40.29,60.41,20.57,87.04,1.87.81,1.01,3.62-1,3.25"/>
        <g class="cls-16">
          <rect class="cls-8" x="737.65" y="30.36" width="111.83" height="96.41" transform="translate(622.82 857.52) rotate(-83.29)"/>
        </g>
        <g class="cls-14">
          <rect class="cls-7" x="703.13" y="14.93" width="144.09" height="139.85" transform="translate(429.09 783.66) rotate(-69.9)"/>
        </g>
        <g class="cls-15">
          <rect class="cls-4" x="702.94" y="10.68" width="138.99" height="143.31" transform="translate(38.14 335.8) rotate(-25.13)"/>
        </g>
        <g class="cls-21">
          <rect class="cls-5" x="725.5" y="44.54" width="106.75" height="119.52" transform="translate(412.82 799.66) rotate(-69.86)"/>
        </g>
        <path class="cls-23" d="M824.65,201.66c154.62-105.02,80.06-210.69,22.62-148.06-1.26,1.36-3.45-.06-2.71-1.75,61.81-141.34,269.64,38.99-18.33,152.82-1.9.76-3.27-1.86-1.58-3"/>
        <g class="cls-18">
          <rect class="cls-3" x="816.32" y="26.72" width="147.26" height="183.7" transform="translate(-6.57 70.41) rotate(-4.51)"/>
        </g>
        <g class="cls-17">
          <rect class="cls-2" x="832.09" y="-27.27" width="158.94" height="162.12" transform="translate(263.88 697.49) rotate(-48.2)"/>
        </g>
        <g class="cls-20">
          <rect class="cls-6" x="824.19" y="1.96" width="170.52" height="169.45" transform="translate(239.09 707.35) rotate(-48.24)"/>
        </g>
        <g class="cls-19">
          <rect class="cls-24" x="835.36" y="-53.89" width="141.04" height="139.57" transform="translate(240.62 630.96) rotate(-43.76)"/>
        </g>
      </g>
    </g>
  </g>
  <g>
    <g class="cls-12">
      <rect class="cls-25" x="-177.91" y="-27.29" width="158.95" height="162.13" transform="translate(-72.91 -55.45) rotate(-48.2)"/>
    </g>
    <g class="cls-11">
      <rect class="cls-26" x="-185.81" y="1.95" width="170.53" height="169.45" transform="translate(-98.24 -46.05) rotate(-48.24)"/>
    </g>
  </g>
</svg>